<?xml version="1.0" standalone="no"?>
<!DOCTYPE svg PUBLIC "-//W3C//DTD SVG 20010904//EN"
 "http://www.w3.org/TR/2001/REC-SVG-20010904/DTD/svg10.dtd">
<svg version="1.0" xmlns="http://www.w3.org/2000/svg"
 width="844.000000pt" height="980.000000pt" viewBox="0 0 844.000000 980.000000"
 preserveAspectRatio="xMidYMid meet">

<g transform="translate(0.000000,980.000000) scale(0.100000,-0.100000)"
fill="#000000" stroke="none">
<path d="M3995 9793 c-16 -2 -73 -13 -127 -24 -600 -124 -1113 -582 -1308
-1166 -45 -135 -66 -235 -80 -381 -5 -57 -14 -111 -20 -121 -5 -11 -29 -30
-54 -45 -24 -14 -78 -62 -119 -106 l-75 -81 -78 6 c-119 10 -148 21 -211 76
-85 74 -106 84 -193 84 -90 0 -132 -19 -203 -91 -62 -63 -72 -99 -59 -199 12
-89 36 -127 116 -182 59 -40 117 -57 174 -49 56 7 95 29 152 82 61 57 83 64
198 64 110 0 118 -3 221 -93 35 -31 82 -62 105 -70 l41 -14 6 -394 c6 -413 8
-435 55 -516 31 -53 125 -137 189 -169 74 -36 191 -43 673 -44 l422 0 0 -135
0 -135 -497 0 c-701 0 -750 -8 -806 -122 -33 -67 -24 -64 -227 -73 -237 -10
-324 -39 -426 -140 -74 -75 -119 -162 -135 -263 -16 -97 -1 -181 49 -287 l40
-82 -168 -329 -168 -329 -49 -3 c-110 -7 -83 -45 -326 456 l-217 447 0 205
c-1 263 -9 333 -46 371 -86 89 -210 66 -244 -47 -7 -23 -14 -137 -17 -276 l-5
-238 -59 0 c-69 0 -104 12 -142 48 -57 54 -61 69 -67 307 -6 247 -7 251 -82
305 -45 33 -75 37 -116 16 -31 -16 -74 -61 -91 -93 -13 -26 -15 -398 -2 -489
20 -134 118 -267 245 -329 76 -38 180 -64 261 -66 109 -3 84 31 301 -424 l196
-410 -18 -99 c-15 -81 -16 -109 -7 -163 31 -178 176 -325 349 -353 170 -28
356 74 437 239 30 62 32 73 31 166 -1 55 -3 130 -5 167 l-4 66 173 344 c96
188 177 346 181 351 4 4 77 10 163 14 l157 6 3 -921 c3 -914 3 -921 24 -949
25 -34 110 -82 145 -83 53 0 54 -6 54 -358 l0 -325 -74 -41 c-191 -106 -300
-279 -301 -476 0 -157 41 -250 165 -375 45 -45 109 -97 148 -119 l67 -39 -2
-341 -3 -341 -135 -6 c-154 -7 -215 -25 -231 -67 -6 -15 -13 -142 -16 -284
l-6 -258 771 0 772 0 0 823 0 823 -47 46 c-66 63 -79 68 -181 68 -115 0 -150
7 -158 32 -10 34 13 43 130 49 175 10 214 37 236 169 6 37 13 273 17 543 l6
477 339 0 c186 0 339 -1 339 -2 1 -2 4 -241 8 -532 l6 -528 55 -50 c76 -68
102 -78 214 -78 99 0 146 -11 146 -32 -1 -35 -18 -41 -141 -49 -145 -9 -189
-20 -232 -58 -28 -25 -32 -37 -38 -102 -4 -41 -8 -417 -8 -836 l-1 -763 766 0
766 0 -4 257 c-5 362 1 353 -239 353 l-139 0 0 348 0 347 77 39 c190 98 295
266 297 476 1 214 -92 371 -284 476 l-90 49 0 343 0 342 58 0 c59 0 81 10 135
58 l27 26 0 933 0 933 175 0 176 0 170 -342 c93 -188 176 -365 184 -392 14
-46 14 -57 -2 -120 -14 -59 -15 -80 -5 -139 31 -181 149 -306 333 -353 158
-40 340 40 437 193 61 97 74 188 46 328 l-16 80 105 220 c58 121 148 308 200
416 l95 196 88 8 c241 20 397 114 482 292 l37 78 3 243 c5 271 3 281 -59 337
-61 55 -102 58 -170 12 -58 -39 -63 -58 -69 -307 -5 -195 -8 -229 -24 -255
-40 -65 -101 -94 -197 -95 l-47 0 -5 238 c-3 134 -10 253 -16 274 -17 54 -50
88 -95 98 -56 12 -90 3 -137 -39 -37 -33 -41 -42 -49 -106 -5 -38 -9 -166 -10
-283 l0 -213 -223 -442 -224 -442 -77 -3 -77 -3 -163 333 -162 333 37 80 c64
137 70 262 19 396 -42 112 -169 234 -274 264 -65 19 -221 34 -354 35 l-103 0
-20 48 c-28 64 -64 99 -124 119 -43 14 -128 17 -635 22 l-585 6 -3 133 -3 132
438 0 c639 1 671 6 784 121 109 110 115 146 127 679 l7 335 60 16 c78 21 138
52 198 103 48 40 51 41 133 45 47 1 95 0 109 -3 13 -3 54 -31 92 -61 80 -64
146 -90 209 -81 85 11 165 68 209 148 25 45 30 64 30 123 -1 113 -51 181 -175
238 -95 43 -213 10 -292 -84 -43 -51 -81 -69 -148 -69 -68 0 -108 19 -166 80
-63 65 -124 102 -196 120 -27 7 -48 14 -48 15 0 31 -24 232 -36 295 -82 455
-357 876 -739 1132 -300 201 -618 291 -1014 287 -75 -1 -149 -4 -166 -6z m505
-397 c239 -51 487 -193 674 -386 109 -112 186 -225 257 -375 100 -213 109
-307 109 -1224 l0 -674 -527 6 c-289 4 -890 7 -1335 7 l-808 0 0 808 0 807 44
115 c56 149 112 258 172 340 117 160 298 333 429 409 153 90 356 162 505 181
99 12 398 3 480 -14z m1040 -4836 l0 -1150 -1340 0 -1340 0 0 1150 0 1150
1340 0 1340 0 0 -1150z m-2070 -1955 l0 -385 -190 0 -190 0 0 385 0 385 190 0
190 0 0 -385z m1840 0 l0 -385 -190 0 -190 0 0 385 0 385 190 0 190 0 0 -385z
m-1840 -1610 l0 -385 -190 0 -190 0 0 385 0 385 190 0 190 0 0 -385z m1840 0
l0 -385 -190 0 -190 0 0 385 0 385 190 0 190 0 0 -385z"/>
<path d="M3449 8291 c-160 -51 -236 -130 -284 -296 -66 -226 98 -470 337 -504
191 -26 359 64 441 237 30 63 32 74 32 177 0 93 -3 118 -23 159 -86 188 -310
289 -503 227z"/>
<path d="M4746 8290 c-180 -64 -276 -187 -284 -366 -7 -140 32 -238 129 -329
199 -186 533 -126 654 118 63 127 57 260 -17 399 -39 74 -82 111 -177 156 -97
47 -212 55 -305 22z"/>
<path d="M3900 7271 c-25 -4 -51 -10 -57 -14 -20 -12 -35 -83 -25 -119 15 -59
32 -63 363 -66 299 -4 399 4 427 32 8 8 16 34 19 58 4 37 1 49 -18 71 -20 23
-37 29 -99 37 -82 10 -538 11 -610 1z"/>
<path d="M3780 5055 l0 -115 420 0 420 0 0 115 0 115 -420 0 -420 0 0 -115z"/>
<path d="M3780 4655 l0 -135 420 0 420 0 0 135 0 135 -420 0 -420 0 0 -135z"/>
<path d="M3780 4215 l0 -115 420 0 420 0 0 115 0 115 -420 0 -420 0 0 -115z"/>
</g>
</svg>
