<?xml version="1.0" standalone="no"?>
<!DOCTYPE svg PUBLIC "-//W3C//DTD SVG 20010904//EN"
 "http://www.w3.org/TR/2001/REC-SVG-20010904/DTD/svg10.dtd">
<svg version="1.0" xmlns="http://www.w3.org/2000/svg"
 width="512.000000pt" height="512.000000pt" viewBox="0 0 512.000000 512.000000"
 preserveAspectRatio="xMidYMid meet">

<g transform="translate(0.000000,512.000000) scale(0.100000,-0.100000)"
fill="#000000" stroke="none">
<path d="M1210 4159 c-487 -286 -895 -525 -908 -533 -22 -11 21 -33 575 -284
l599 -271 739 -59 740 -59 206 118 c114 66 212 119 218 119 6 0 48 -24 92 -54
l81 -54 -84 -49 c-45 -27 -149 -87 -230 -134 l-148 -84 0 -742 c0 -490 3 -743
10 -743 10 0 479 125 510 136 19 7 46 29 -313 -260 l-318 -255 -52 28 c-29 16
-284 154 -567 306 l-515 277 -339 -31 c-187 -17 -341 -30 -343 -28 -4 5 718
310 732 310 6 0 233 -115 505 -256 l495 -257 3 732 c1 402 0 733 -2 735 -2 3
-312 29 -688 58 -375 30 -705 56 -733 59 -38 3 -197 71 -657 280 -334 152
-610 276 -613 276 -3 0 -5 -502 -5 -1117 l0 -1116 116 -156 c65 -86 118 -157
120 -159 1 -2 188 -51 415 -108 l412 -106 107 107 107 107 32 -83 c17 -46 43
-113 56 -149 l25 -66 643 -164 c353 -90 648 -165 655 -168 9 -3 12 52 12 257
l0 261 51 -25 51 -26 44 36 44 36 2 -260 3 -260 905 528 905 527 3 487 2 486
-117 56 c-64 30 -118 57 -120 59 -2 2 50 89 116 193 l121 190 0 526 c0 290 -3
527 -7 527 -3 0 -206 -115 -450 -257 l-443 -256 -1 -86 c-1 -47 -4 -123 -7
-169 l-7 -82 -435 290 c-328 218 -428 290 -407 290 15 0 205 -12 422 -26 l395
-25 394 228 c217 125 392 230 389 233 -2 2 -412 108 -911 235 l-907 231 -318
-29 c-175 -16 -320 -27 -323 -25 -2 3 7 49 22 102 14 54 24 99 22 101 -2 3
-131 36 -228 60 -8 2 -413 -231 -900 -516z"/>
</g>
</svg>
