<?xml version="1.0" standalone="no"?>
<!DOCTYPE svg PUBLIC "-//W3C//DTD SVG 20010904//EN"
 "http://www.w3.org/TR/2001/REC-SVG-20010904/DTD/svg10.dtd">
<svg version="1.0" xmlns="http://www.w3.org/2000/svg"
 width="2800.000000pt" height="811.000000pt" viewBox="0 0 2800.000000 811.000000"
 preserveAspectRatio="xMidYMid meet">

<g transform="translate(0.000000,811.000000) scale(0.100000,-0.100000)"
fill="#000000" stroke="none">
<path d="M0 4055 l0 -4055 14000 0 14000 0 0 4055 0 4055 -14000 0 -14000 0 0
-4055z m4586 3148 c108 -6 113 -7 146 -38 l35 -31 7 -390 7 -389 32 -28 c18
-16 58 -51 89 -78 62 -54 155 -188 181 -259 31 -87 44 -152 52 -250 18 -253
19 -240 -4 -240 -11 0 -23 5 -27 11 -13 21 -129 69 -167 69 -84 0 -191 -87
-218 -177 -6 -24 -14 -43 -16 -43 -2 0 -16 11 -31 25 -50 48 -109 67 -182 61
-36 -3 -79 -9 -97 -12 -27 -5 -37 -1 -67 28 -43 41 -85 60 -186 83 -127 28
-150 35 -150 49 0 8 14 19 31 25 96 33 212 173 235 285 16 77 23 177 14 200
-19 52 -45 25 -55 -59 -17 -146 -53 -241 -111 -297 -50 -48 -181 -109 -264
-122 -119 -21 -76 -65 89 -92 236 -38 294 -57 347 -109 43 -44 54 -72 54 -143
-1 -105 -51 -174 -151 -207 -41 -14 -59 -15 -83 -7 -17 6 -53 14 -81 17 -53 8
-460 87 -533 105 -24 6 -70 28 -102 50 -50 34 -61 47 -76 92 -27 79 -22 180
14 313 90 330 134 435 229 546 54 63 87 88 182 139 l66 35 6 340 c3 187 7 358
8 380 2 59 43 106 102 115 57 10 531 12 675 3z m15388 -716 c22 -22 42 -66
136 -304 50 -125 104 -259 120 -298 16 -38 77 -191 135 -340 58 -148 119 -304
136 -345 17 -41 41 -104 54 -140 12 -36 38 -103 58 -150 19 -47 47 -114 61
-150 49 -127 87 -215 96 -224 12 -12 54 77 165 359 49 125 245 604 290 710 26
61 67 160 92 220 25 61 67 162 93 225 26 63 62 151 79 195 45 113 93 214 112
236 33 39 77 18 117 -56 16 -28 17 -203 17 -2240 0 -2140 -1 -2211 -19 -2245
-28 -53 -46 -70 -76 -70 -32 0 -52 20 -74 74 -14 35 -16 215 -17 1870 0 1007
-4 1851 -8 1876 -7 43 -8 44 -19 20 -35 -80 -87 -207 -119 -290 -19 -52 -39
-99 -43 -105 -4 -5 -24 -53 -45 -105 -21 -52 -46 -113 -56 -135 -25 -57 -270
-653 -309 -755 -91 -231 -123 -296 -152 -303 -65 -17 -96 36 -227 383 -26 69
-52 134 -59 146 -6 11 -24 58 -40 105 -17 46 -40 107 -52 134 -12 28 -55 136
-96 242 -40 106 -83 211 -93 235 -11 24 -57 138 -103 253 -45 116 -84 203 -85
195 -2 -8 -4 -847 -6 -1865 -2 -1448 -5 -1858 -15 -1886 -38 -113 -112 -119
-163 -14 -12 26 -14 336 -17 2210 -2 1558 1 2195 9 2233 17 86 84 139 123 99z
m-11122 -32 c56 -55 53 57 53 -2295 0 -2083 -1 -2177 -18 -2222 -10 -26 -31
-57 -46 -68 -24 -17 -32 -18 -54 -7 -14 7 -36 30 -49 52 l-23 40 -3 2180 c-2
1542 1 2195 9 2233 12 61 51 112 84 112 12 0 34 -11 47 -25z m1032 14 c141
-38 252 -116 368 -260 86 -106 185 -360 225 -579 23 -123 26 -596 4 -735 -13
-87 -66 -289 -91 -350 -27 -65 -114 -240 -124 -250 -6 -7 -26 -31 -45 -56 -74
-95 -212 -194 -310 -222 -20 -6 -146 -13 -281 -16 -218 -5 -245 -8 -248 -23
-2 -9 37 -84 87 -167 50 -83 100 -170 112 -193 12 -24 25 -45 28 -48 4 -3 35
-54 68 -115 34 -60 78 -137 99 -170 21 -33 70 -116 110 -185 73 -128 239 -407
279 -470 12 -19 54 -89 92 -155 39 -66 79 -136 91 -155 103 -174 121 -229 103
-325 -17 -92 -42 -125 -93 -125 -31 0 -38 6 -86 79 -29 43 -52 81 -52 84 0 4
-24 46 -52 96 -29 49 -60 102 -69 118 -10 15 -47 78 -84 138 -36 61 -76 128
-87 150 -11 22 -24 42 -28 45 -4 3 -33 50 -65 105 -32 55 -74 128 -94 162 -20
34 -63 108 -95 165 -60 103 -263 448 -309 523 -165 271 -302 518 -317 575 -22
80 8 218 52 247 7 4 184 10 393 13 336 4 384 7 414 23 19 9 38 17 43 17 17 0
113 68 159 112 72 70 116 144 160 273 53 156 73 313 65 510 -7 169 -18 245
-53 350 -28 87 -70 186 -81 195 -4 3 -19 23 -33 45 -63 96 -160 167 -280 204
-23 7 -167 11 -416 11 l-380 0 -25 25 c-68 67 -60 278 11 332 22 17 774 18
835 2z m5013 -11 c71 -79 77 -232 11 -312 l-29 -36 -362 0 c-395 -1 -417 -3
-504 -57 -158 -98 -299 -370 -347 -670 -20 -129 -21 -439 -1 -578 23 -160 101
-360 175 -446 l29 -34 1 60 c0 77 14 127 46 165 l26 30 258 0 c162 0 261 -4
265 -10 3 -5 17 -10 31 -10 13 0 24 -4 24 -10 0 -5 11 -10 25 -10 14 0 25 -4
25 -10 0 -5 4 -10 10 -10 27 0 143 -119 199 -204 22 -33 45 -67 51 -74 14 -16
86 -170 115 -248 36 -93 83 -284 102 -414 33 -225 19 -685 -26 -870 -63 -254
-119 -397 -218 -547 -111 -169 -250 -280 -373 -299 -25 -4 -225 -8 -445 -11
-463 -4 -474 -3 -506 63 -40 85 -33 225 16 282 l23 27 461 5 c349 4 463 8 473
17 6 7 20 13 30 13 10 0 18 5 18 10 0 6 7 10 15 10 8 0 15 5 15 10 0 6 5 10
12 10 16 0 83 73 123 135 81 125 141 277 182 465 23 107 29 454 9 580 -32 200
-94 377 -178 506 -80 123 -146 182 -237 210 -66 20 -412 20 -391 0 28 -26 157
-46 295 -46 l133 0 24 -47 c19 -39 23 -64 23 -133 0 -72 -4 -92 -25 -130 l-25
-45 -204 -3 c-130 -1 -208 1 -215 8 -5 5 -20 10 -33 10 -13 0 -23 5 -23 10 0
6 -9 10 -20 10 -12 0 -30 9 -42 20 -12 11 -28 20 -35 20 -7 0 -13 5 -13 10 0
6 -5 10 -12 10 -17 0 -108 96 -160 170 -116 164 -212 420 -243 650 -34 255
-30 587 10 820 83 484 322 866 585 939 19 5 208 10 421 10 l386 1 20 -22z
m3725 -25 c14 -27 37 -103 52 -173 51 -240 88 -426 116 -570 15 -80 39 -199
53 -265 15 -66 36 -169 47 -230 20 -104 30 -155 50 -235 4 -19 18 -87 30 -150
12 -63 34 -176 51 -250 16 -74 42 -200 58 -280 17 -80 55 -264 86 -410 31
-146 67 -321 81 -390 13 -69 31 -156 39 -195 8 -38 33 -162 55 -275 23 -113
50 -243 60 -290 11 -47 35 -166 55 -265 19 -99 44 -220 55 -270 33 -152 23
-259 -28 -310 -42 -43 -94 -25 -120 41 -14 34 -62 258 -102 470 -16 84 -34
170 -40 193 -6 22 -28 127 -50 233 -22 106 -65 315 -96 463 -114 551 -155 753
-179 875 -13 69 -38 190 -55 270 -17 80 -37 183 -46 230 -8 47 -26 132 -39
190 -13 58 -35 164 -49 235 -14 72 -39 195 -56 275 -17 80 -40 191 -51 248
-11 57 -25 115 -31 130 -10 25 -11 26 -19 7 -5 -11 -25 -99 -44 -195 -19 -96
-57 -283 -84 -415 -27 -132 -63 -310 -80 -395 -17 -85 -35 -177 -42 -205 -6
-27 -33 -156 -59 -285 -27 -129 -60 -289 -74 -355 -14 -66 -34 -167 -46 -225
-12 -58 -25 -121 -29 -140 -5 -19 -27 -125 -50 -235 -22 -110 -66 -319 -96
-465 -30 -146 -69 -330 -85 -410 -97 -481 -104 -507 -141 -542 -32 -32 -83
-15 -110 35 -33 60 -29 193 10 357 21 86 32 137 66 305 67 333 97 483 125 615
17 80 39 190 50 245 19 100 100 488 191 925 94 445 139 666 184 885 25 121 67
330 95 465 28 135 70 344 94 465 49 240 50 247 78 288 15 21 27 27 57 27 35 0
40 -4 63 -47z m3557 26 c13 -12 31 -38 40 -58 15 -33 16 -219 19 -2196 2
-1538 -1 -2179 -8 -2226 -9 -52 -18 -73 -42 -98 -17 -17 -37 -31 -45 -31 -27
0 -61 32 -80 73 -17 40 -18 131 -21 2177 -2 1406 1 2164 8 2219 16 137 70 195
129 140z m1042 10 c86 -28 200 -100 236 -149 6 -9 26 -31 43 -50 122 -130 249
-431 305 -720 26 -133 38 -336 32 -555 -8 -284 -28 -404 -111 -654 l-24 -74
50 -101 c91 -185 154 -397 185 -616 23 -169 22 -477 -1 -665 -62 -489 -272
-889 -526 -1001 -72 -32 -102 -34 -545 -34 l-448 0 -28 29 c-54 57 -66 180
-25 268 14 28 33 56 45 62 13 7 158 11 440 11 403 0 521 7 521 32 0 4 9 8 20
8 11 0 20 5 20 10 0 6 6 10 14 10 7 0 40 28 72 63 107 115 205 338 241 547 24
143 28 404 9 559 -18 134 -58 298 -89 358 -10 18 -17 38 -17 46 0 19 -83 147
-95 147 -5 0 -30 -21 -55 -46 -52 -53 -152 -124 -174 -124 -8 0 -18 -4 -21
-10 -3 -6 -17 -10 -30 -10 -13 0 -27 -4 -30 -10 -10 -16 -403 -13 -419 3 -36
35 -50 83 -50 167 0 72 4 92 25 130 30 55 38 57 225 59 116 1 143 4 148 16 5
13 -16 15 -147 15 -135 0 -156 2 -185 20 -47 29 -66 79 -66 175 0 93 25 155
74 180 58 30 498 16 535 -16 5 -5 17 -9 27 -9 21 0 52 -17 82 -42 31 -28 42
-22 68 40 80 181 111 433 89 712 -15 188 -42 304 -105 462 -74 183 -216 345
-336 382 -21 6 -185 11 -410 13 -364 3 -375 4 -397 25 -46 43 -68 171 -42 249
7 19 23 49 36 67 l24 32 388 0 c255 0 400 -4 422 -11z m-11051 -25 c201 -65
427 -275 569 -529 19 -33 40 -67 47 -76 24 -27 113 -244 164 -397 78 -235 136
-504 159 -732 6 -58 15 -149 21 -202 13 -123 13 -551 0 -671 -5 -51 -14 -139
-20 -197 -20 -197 -89 -524 -149 -705 -92 -279 -141 -384 -276 -590 -29 -44
-70 -100 -91 -125 -64 -75 -187 -200 -196 -200 -5 0 -18 -8 -29 -18 -32 -30
-162 -92 -239 -113 -68 -19 -244 -17 -313 4 -169 50 -285 131 -439 305 -71 81
-172 244 -249 402 -152 311 -237 635 -296 1120 -27 226 -25 705 5 950 45 368
96 586 207 890 17 46 95 216 119 260 60 107 99 173 131 220 48 72 157 199 171
199 7 1 14 7 17 15 15 38 250 186 296 186 9 0 21 4 27 9 25 26 281 22 364 -5z
m3348 6 c47 -51 46 -36 49 -1070 2 -536 5 -985 8 -997 l5 -23 750 0 749 0 3
993 c3 969 3 993 23 1042 39 95 106 98 148 7 l22 -47 0 -2191 0 -2191 -30 -49
c-27 -42 -36 -49 -67 -52 -35 -3 -37 -1 -64 55 l-29 58 -3 998 -3 997 -752 -2
-752 -3 -5 -995 -5 -995 -28 -58 c-26 -53 -31 -57 -63 -57 -29 0 -38 6 -59 40
-14 22 -30 61 -35 87 -7 32 -9 779 -8 2203 3 1984 4 2158 20 2192 34 75 87 99
126 58z m10086 0 c6 -6 18 -10 27 -10 24 0 115 -46 174 -89 160 -115 270 -238
393 -441 46 -75 152 -297 152 -317 0 -5 14 -41 30 -82 65 -158 145 -497 176
-746 57 -452 57 -757 0 -1190 -66 -494 -235 -987 -433 -1255 -190 -258 -324
-365 -542 -430 -120 -36 -272 -22 -400 36 -106 48 -118 55 -139 74 -12 11 -25
20 -30 20 -14 0 -188 182 -235 245 -114 155 -255 444 -331 680 -127 397 -176
740 -176 1235 0 333 26 612 79 855 44 199 58 257 96 370 48 143 59 172 116
292 21 45 39 84 39 86 0 8 103 192 110 197 4 3 20 28 36 55 35 61 66 98 166
195 140 138 275 214 413 234 51 7 268 -3 279 -14z m-20612 -940 c21 -6 51 -27
72 -50 30 -34 36 -48 37 -88 0 -26 3 -141 5 -257 3 -115 2 -266 -2 -335 l-6
-125 -43 -41 c-49 -48 -100 -62 -162 -45 -47 13 -100 65 -113 111 -6 20 -9
177 -7 381 l2 347 31 39 c52 65 108 84 186 63z m-395 -145 c26 -16 51 -41 63
-65 19 -37 20 -59 20 -406 0 -351 -1 -368 -20 -403 -33 -57 -82 -84 -152 -82
-70 1 -107 19 -142 64 l-26 34 0 299 0 299 27 55 c19 40 27 74 28 123 2 38 5
69 6 71 60 45 130 49 196 11z m-922 -275 c65 -11 125 -25 131 -32 9 -10 14
-110 17 -392 l3 -380 -35 -39 c-45 -50 -80 -67 -136 -67 -63 0 -107 23 -142
72 l-28 41 0 392 c0 418 1 425 49 425 11 0 75 -9 141 -20z m345 -69 c25 -5 89
-10 143 -11 l98 0 -3 -327 c-3 -369 -3 -368 -80 -423 -35 -26 -50 -30 -105
-30 -62 0 -66 2 -110 43 -34 33 -47 53 -54 87 -9 52 -12 586 -2 643 7 43 5 43
113 18z m1016 -900 c10 -1 153 -105 268 -196 21 -16 84 -66 140 -110 108 -85
154 -122 216 -170 117 -90 249 -196 299 -237 31 -26 59 -48 64 -48 25 0 -10
-71 -72 -146 -44 -52 -86 -106 -95 -123 -5 -9 -19 -27 -31 -41 -13 -14 -40
-56 -61 -95 -20 -38 -39 -71 -40 -73 -2 -4 -231 20 -374 39 -77 10 -181 42
-235 71 -19 11 -59 28 -326 141 -58 24 -114 49 -125 55 -10 6 -50 23 -89 38
-82 31 -121 51 -153 79 -59 50 -71 136 -28 209 20 35 35 47 82 65 l57 22 96
-32 c53 -18 110 -40 126 -49 17 -9 55 -26 85 -37 30 -12 85 -35 123 -52 37
-17 71 -31 75 -31 7 0 93 -36 309 -131 72 -32 144 -61 160 -65 15 -4 49 -17
75 -30 26 -13 56 -24 67 -24 19 0 35 25 26 40 -5 8 -213 176 -266 216 -35 25
-229 174 -249 191 -8 7 -78 62 -155 123 -174 137 -185 151 -185 246 0 64 3 76
27 105 42 49 79 59 189 50z m-1753 -15 c70 -32 97 -72 97 -144 0 -58 -27 -105
-80 -139 -19 -12 -53 -36 -75 -53 -22 -18 -69 -51 -104 -74 -76 -49 -120 -78
-192 -128 -185 -129 -189 -132 -189 -164 0 -34 28 -57 62 -50 23 4 191 110
253 159 9 7 191 132 314 216 29 20 81 53 114 74 33 21 66 45 74 53 21 21 100
65 141 79 91 32 182 -44 182 -153 0 -56 -32 -106 -87 -138 -18 -11 -98 -64
-179 -119 -160 -109 -340 -231 -449 -305 -93 -63 -109 -82 -100 -117 16 -66
49 -58 206 48 74 51 184 125 244 165 61 40 126 85 145 99 53 39 161 112 195
131 17 9 50 32 74 51 56 42 107 57 165 49 51 -8 86 -41 106 -102 26 -78 -7
-133 -135 -220 -48 -32 -143 -97 -211 -144 -68 -47 -176 -120 -240 -163 -152
-103 -264 -184 -291 -210 -25 -22 -29 -47 -13 -78 21 -38 59 -23 225 91 507
346 545 370 582 370 81 0 153 -73 153 -155 0 -70 -28 -108 -126 -170 -32 -21
-121 -82 -234 -161 -36 -25 -87 -60 -115 -79 -27 -19 -111 -75 -185 -126 -74
-51 -164 -111 -200 -135 -36 -23 -83 -56 -105 -72 -22 -16 -53 -37 -70 -45
-47 -25 -88 -68 -76 -80 6 -6 91 -14 193 -18 151 -6 191 -11 228 -28 84 -37
122 -101 110 -187 -7 -61 -26 -92 -77 -131 l-36 -28 -261 -8 c-144 -4 -407 -6
-586 -4 -356 4 -354 4 -502 71 l-75 34 -44 -25 c-24 -13 -52 -32 -62 -41 -10
-9 -33 -25 -52 -37 -66 -40 -204 -136 -210 -146 -4 -5 -21 -16 -38 -24 -18 -8
-61 -35 -96 -60 -60 -43 -67 -45 -131 -45 -80 0 -73 -6 -193 170 -42 63 -106
156 -141 207 -62 90 -89 131 -133 202 -16 25 -23 51 -23 86 1 60 13 74 140
159 47 31 91 61 98 67 10 8 150 104 210 144 70 46 148 98 150 100 2 2 9 49 17
106 15 107 38 194 71 264 48 103 168 233 289 314 85 57 248 166 333 224 34 23
68 47 75 52 7 6 30 22 52 36 58 37 73 47 169 114 48 33 104 71 126 85 22 14
83 57 137 96 54 39 109 77 122 84 14 7 36 24 50 37 32 29 137 83 163 83 10 0
33 -7 51 -14z m3191 -626 c32 -11 73 -32 91 -47 18 -16 68 -55 110 -88 159
-123 244 -202 330 -309 45 -57 70 -124 81 -221 11 -100 12 -102 62 -131 26
-15 153 -81 282 -147 129 -65 249 -129 267 -143 42 -32 58 -82 43 -131 -24
-75 -255 -542 -309 -623 -40 -60 -80 -78 -146 -66 -18 4 -168 74 -331 156
-163 83 -306 150 -317 150 -10 0 -47 -13 -81 -29 -120 -57 -161 -66 -301 -66
-107 0 -143 4 -205 24 -78 24 -480 219 -480 233 0 13 64 9 231 -11 175 -22
287 -28 339 -17 46 10 127 89 140 136 13 47 13 99 -1 141 -15 45 -81 113 -133
135 -22 10 -42 19 -44 20 -2 1 8 25 22 52 14 28 28 69 32 91 7 43 78 154 128
201 35 32 41 21 50 -78 3 -41 12 -83 20 -91 7 -9 17 -27 21 -40 18 -58 180
-194 246 -208 28 -5 30 -4 27 17 -2 16 -19 33 -52 52 -171 101 -245 258 -201
428 9 36 19 82 22 103 5 36 4 38 -18 35 -16 -2 -57 -47 -135 -147 -126 -162
-152 -189 -195 -201 -81 -24 -194 21 -241 94 -22 34 -28 56 -28 99 0 69 15 93
236 375 27 35 62 80 77 100 15 20 51 61 79 90 78 80 170 101 282 62z m-1059
-620 c33 -5 83 -12 110 -15 84 -9 179 -27 197 -37 10 -5 27 -28 39 -51 27 -54
84 -113 131 -138 22 -11 72 -22 120 -27 74 -6 83 -9 80 -26 -2 -10 -10 -25
-18 -33 -8 -8 -14 -17 -14 -21 0 -4 -16 -18 -36 -31 -43 -30 -107 -31 -279 -7
-60 8 -177 25 -260 36 -199 28 -202 29 -240 44 -54 23 -80 70 -80 146 0 74 18
107 83 147 41 25 77 28 167 13z m235 -430 c47 -5 119 -14 160 -19 41 -5 107
-13 145 -16 99 -8 170 -22 203 -39 29 -15 82 -100 82 -132 -1 -40 -40 -104
-82 -134 -42 -31 -45 -32 -123 -26 -44 3 -91 8 -105 10 -40 7 -183 24 -330 40
-216 23 -275 62 -275 183 0 71 20 107 76 136 36 19 53 19 249 -3z"/>
<path d="M11885 6091 c-27 -4 -63 -14 -80 -22 -16 -9 -51 -26 -76 -38 -26 -12
-52 -28 -59 -36 -7 -8 -16 -15 -21 -15 -22 0 -159 -134 -217 -212 -23 -31 -58
-87 -79 -125 -20 -37 -40 -70 -44 -73 -11 -9 -36 -62 -82 -180 -153 -388 -217
-747 -217 -1213 0 -483 70 -866 228 -1247 42 -101 134 -274 167 -312 11 -13
29 -37 39 -53 32 -49 157 -173 211 -208 28 -18 73 -43 100 -56 28 -13 58 -27
67 -32 10 -5 40 -9 68 -9 28 0 59 -6 70 -12 15 -10 22 -10 32 0 7 7 39 12 75
12 35 0 63 4 63 10 0 6 9 10 19 10 22 0 122 51 166 84 81 62 211 211 274 315
144 237 261 575 315 906 58 358 52 930 -14 1250 -82 394 -170 632 -326 869
-57 89 -180 223 -254 279 -125 93 -263 128 -425 108z"/>
<path d="M25345 6091 c-27 -4 -65 -14 -84 -24 -19 -9 -39 -17 -45 -17 -20 0
-155 -96 -216 -153 -33 -32 -86 -92 -118 -135 -63 -85 -176 -298 -215 -407
-14 -38 -35 -95 -47 -125 -50 -134 -117 -450 -141 -665 -16 -143 -16 -637 -1
-785 37 -349 133 -693 269 -964 67 -134 104 -196 138 -232 11 -12 27 -32 35
-44 21 -33 107 -119 162 -163 55 -44 152 -97 178 -97 11 0 22 -4 25 -10 3 -5
30 -10 59 -10 28 0 57 -5 64 -12 9 -9 18 -9 37 0 14 7 50 12 80 12 30 0 57 4
60 10 3 6 17 10 31 10 13 0 24 5 24 10 0 6 7 10 15 10 43 0 250 176 305 260 8
12 20 28 25 34 6 6 28 40 50 76 21 36 51 85 66 110 61 99 159 368 208 570 32
129 60 315 82 527 25 251 0 701 -56 999 -38 203 -162 581 -214 654 -10 14 -29
46 -41 70 -47 93 -131 209 -206 284 -49 49 -105 96 -113 96 -6 0 -11 4 -11 9
0 16 -163 89 -224 100 -63 12 -101 12 -181 2z"/>
</g>
</svg>
