<?xml version="1.0" standalone="no"?>
<!DOCTYPE svg PUBLIC "-//W3C//DTD SVG 20010904//EN"
 "http://www.w3.org/TR/2001/REC-SVG-20010904/DTD/svg10.dtd">
<svg version="1.0" xmlns="http://www.w3.org/2000/svg"
 width="1435.000000pt" height="1437.000000pt" viewBox="0 0 1435.000000 1437.000000"
 preserveAspectRatio="xMidYMid meet">

<g transform="translate(0.000000,1437.000000) scale(0.100000,-0.100000)"
fill="#000000" stroke="none">
<path d="M0 7185 l0 -7185 7175 0 7175 0 0 7185 0 7185 -7175 0 -7175 0 0
-7185z m7655 6237 l170 -7 53 -52 c28 -28 52 -56 52 -62 0 -6 5 -11 11 -11 5
0 8 -4 5 -9 -4 -5 -1 -11 6 -13 10 -4 13 -106 15 -449 1 -396 10 -899 17 -970
3 -28 53 -96 68 -91 5 1 11 -5 14 -13 4 -8 12 -15 20 -15 7 0 18 -9 24 -20 6
-11 15 -18 20 -15 5 3 18 -8 30 -25 12 -16 25 -30 30 -30 12 0 154 -143 152
-153 -1 -4 5 -10 13 -13 8 -3 13 -10 10 -15 -3 -4 4 -13 15 -19 11 -6 20 -17
20 -25 0 -8 9 -19 20 -25 11 -6 18 -15 15 -21 -4 -5 -1 -9 5 -9 6 0 8 -4 5
-10 -3 -5 -1 -10 5 -10 6 0 8 -4 5 -10 -3 -5 -1 -10 4 -10 6 0 11 -7 11 -15 0
-8 5 -15 11 -15 5 0 7 -4 4 -10 -3 -5 -1 -10 5 -10 6 0 8 -4 5 -10 -3 -5 -1
-10 5 -10 6 0 8 -4 5 -10 -3 -5 -1 -10 5 -10 6 0 8 -4 5 -10 -3 -5 -1 -10 5
-10 6 0 9 -4 5 -9 -3 -5 -1 -12 5 -16 6 -4 8 -10 5 -15 -3 -5 -1 -11 5 -15 6
-4 8 -10 5 -15 -3 -5 -1 -11 5 -15 6 -4 8 -11 5 -16 -4 -5 -1 -9 5 -9 7 0 10
-7 6 -15 -3 -8 -1 -15 4 -15 5 0 7 -7 4 -15 -4 -8 -1 -15 6 -15 6 0 9 -4 5 -9
-3 -5 -1 -12 5 -16 6 -4 8 -11 4 -16 -3 -5 0 -16 6 -24 7 -8 9 -15 5 -15 -4 0
-2 -6 4 -13 6 -8 8 -17 4 -20 -3 -4 0 -13 6 -21 7 -8 10 -20 6 -26 -3 -5 -3
-16 2 -22 4 -7 9 -22 10 -33 2 -11 5 -36 8 -55 8 -63 16 -164 19 -240 2 -41 7
-132 11 -202 8 -126 8 -128 -13 -128 -11 0 -24 5 -27 10 -4 6 -11 8 -16 5 -5
-4 -9 -1 -9 5 0 6 -4 9 -9 5 -6 -3 -15 4 -21 15 -6 11 -17 20 -25 20 -8 0 -15
5 -15 10 0 6 -7 10 -15 10 -8 0 -15 5 -15 11 0 5 -4 7 -10 4 -5 -3 -10 -1 -10
5 0 6 -4 8 -10 5 -5 -3 -10 -1 -10 5 0 6 -4 8 -10 5 -5 -3 -10 -1 -10 4 0 6
-3 10 -7 10 -5 -1 -11 0 -15 1 -5 1 -12 4 -18 5 -5 1 -12 4 -15 5 -3 1 -9 4
-15 5 -5 1 -11 3 -12 5 -15 12 -131 18 -145 7 -7 -5 -17 -6 -22 -3 -5 4 -12 2
-16 -4 -4 -6 -10 -8 -15 -5 -5 3 -11 1 -15 -5 -4 -6 -11 -8 -16 -5 -5 4 -9 1
-9 -5 0 -6 -4 -8 -10 -5 -5 3 -10 1 -10 -5 0 -6 -4 -8 -10 -5 -5 3 -10 1 -10
-5 0 -6 -4 -8 -10 -5 -5 3 -10 1 -10 -5 0 -6 -4 -9 -9 -6 -5 3 -12 -1 -15 -10
-4 -9 -9 -15 -11 -12 -6 6 -105 -89 -105 -101 0 -5 -7 -12 -16 -15 -8 -3 -12
-10 -9 -16 3 -5 1 -10 -5 -10 -6 0 -8 -4 -5 -10 3 -5 1 -10 -5 -10 -6 0 -8 -4
-5 -10 3 -5 1 -10 -4 -10 -6 0 -10 -3 -10 -7 1 -5 0 -10 -1 -13 -3 -8 -11 -44
-15 -65 -2 -11 -4 -20 -5 -20 -1 0 -3 -8 -5 -18 -6 -33 -15 -32 -46 6 -17 21
-35 35 -40 31 -5 -3 -12 2 -15 10 -3 9 -13 16 -20 16 -8 0 -17 7 -20 15 -4 8
-10 12 -15 9 -5 -3 -9 0 -9 6 0 6 -4 8 -10 5 -5 -3 -10 -1 -10 5 0 6 -4 8 -10
5 -5 -3 -10 -1 -10 5 0 6 -4 8 -10 5 -5 -3 -10 -1 -10 4 0 6 -3 10 -7 10 -5
-1 -11 0 -15 1 -5 1 -12 4 -18 5 -5 1 -11 3 -12 5 -23 17 -185 16 -204 -2 -3
-4 -12 -4 -20 -1 -8 3 -14 0 -14 -7 0 -7 -7 -10 -15 -6 -8 3 -15 1 -15 -5 0
-6 -6 -9 -14 -6 -8 3 -17 3 -20 0 -12 -13 -75 -9 -80 4 -3 8 -10 12 -15 9 -4
-3 -27 17 -50 44 -23 28 -48 50 -56 50 -7 0 -16 7 -19 16 -4 9 -9 14 -12 11
-4 -3 -13 1 -21 9 -8 8 -19 12 -24 9 -5 -4 -9 -1 -9 5 0 6 -4 8 -10 5 -5 -3
-10 -1 -10 5 0 7 -7 10 -15 7 -8 -4 -17 -2 -20 3 -3 5 -14 9 -25 9 -11 1 -29
1 -40 2 -11 0 -22 4 -25 9 -3 5 -12 7 -20 3 -8 -3 -15 0 -15 7 0 7 -6 10 -14
7 -8 -3 -17 -3 -20 1 -4 3 -14 7 -24 8 -9 2 -29 6 -44 9 -46 9 -82 16 -98 19
-9 1 -21 5 -28 10 -6 4 -16 5 -21 1 -5 -3 -12 -1 -16 5 -4 6 -11 8 -16 5 -5
-4 -9 -1 -9 4 0 6 -6 11 -14 11 -24 0 -27 16 -6 40 11 13 20 20 20 15 0 -4 6
-2 13 4 8 6 17 8 20 4 4 -3 7 -1 7 6 0 7 5 9 10 6 6 -3 10 -1 10 5 0 6 5 8 10
5 6 -3 10 -1 10 5 0 6 5 8 10 5 6 -3 10 -1 10 5 0 6 5 8 10 5 6 -3 13 1 16 9
3 9 10 14 14 11 4 -3 11 2 14 11 3 8 10 13 15 9 6 -3 15 4 21 15 6 11 16 20
22 20 16 0 88 71 88 87 0 7 11 20 25 29 14 9 23 20 20 24 -3 4 2 11 11 14 8 3
13 10 10 15 -3 5 1 12 10 15 8 3 12 10 9 16 -3 5 -1 10 5 10 6 0 8 5 5 10 -3
6 -1 10 5 10 6 0 8 5 5 10 -3 6 -1 10 5 10 6 0 8 5 5 10 -3 6 -1 10 5 10 6 0
8 5 5 10 -3 6 -1 10 5 10 6 0 9 4 5 9 -3 5 -1 12 5 16 6 4 8 11 5 16 -4 5 -1
9 5 9 6 0 9 4 5 9 -3 5 -1 12 5 16 6 4 8 10 5 15 -3 5 -1 11 5 15 6 4 8 11 5
16 -4 5 -3 15 2 22 23 37 48 313 33 372 -8 31 -28 48 -48 39 -9 -4 -20 -8 -24
-8 -21 -3 -28 -25 -33 -111 -2 -33 -7 -82 -10 -110 -4 -27 -7 -61 -7 -75 0
-14 -4 -30 -10 -37 -5 -7 -7 -17 -4 -22 4 -5 2 -13 -4 -16 -6 -4 -8 -15 -5
-25 3 -10 1 -21 -5 -25 -6 -3 -8 -11 -5 -16 4 -5 1 -9 -5 -9 -7 0 -10 -7 -6
-15 3 -8 1 -15 -5 -15 -6 0 -9 -7 -5 -15 3 -8 1 -15 -5 -15 -6 0 -7 -4 -4 -10
3 -5 1 -10 -5 -10 -6 0 -8 -4 -5 -10 3 -5 1 -10 -5 -10 -6 0 -8 -4 -5 -10 3
-5 1 -10 -5 -10 -6 0 -9 -4 -6 -9 3 -5 -1 -12 -10 -15 -8 -3 -13 -10 -10 -15
3 -5 -1 -12 -10 -15 -9 -4 -15 -9 -12 -11 7 -7 -96 -115 -110 -115 -6 0 -16
-9 -22 -20 -6 -11 -15 -18 -19 -15 -5 3 -12 -2 -15 -11 -3 -8 -10 -12 -16 -9
-5 3 -10 1 -10 -6 0 -7 -3 -10 -6 -6 -4 3 -13 -1 -21 -9 -8 -8 -19 -12 -24 -9
-5 4 -9 1 -9 -5 0 -6 -4 -8 -10 -5 -5 3 -10 1 -10 -5 0 -6 -4 -8 -10 -5 -5 3
-10 1 -10 -5 0 -6 -4 -9 -9 -5 -5 3 -12 1 -16 -5 -4 -6 -11 -8 -16 -5 -5 4 -9
1 -9 -4 0 -6 -3 -10 -7 -10 -5 1 -11 0 -15 -1 -5 -1 -12 -4 -18 -5 -5 -1 -12
-4 -15 -5 -3 -1 -9 -4 -15 -5 -5 -1 -12 -4 -15 -5 -3 -1 -9 -4 -15 -5 -5 -1
-11 -3 -12 -5 -2 -1 -12 -3 -23 -5 -54 -10 -103 -17 -127 -20 -16 -1 -29 -3
-30 -5 -2 -1 -11 -3 -20 -5 -16 -3 -48 -28 -48 -38 0 -2 14 -18 30 -35 17 -18
30 -29 30 -26 0 4 6 1 14 -5 7 -6 20 -9 29 -5 8 3 18 0 22 -5 3 -6 11 -9 16
-5 5 3 15 1 22 -4 7 -5 19 -10 27 -10 24 -2 65 -9 65 -12 0 -2 35 -8 75 -14
14 -2 25 -5 25 -6 0 -1 11 -4 25 -6 28 -4 75 -11 118 -19 15 -3 36 -6 47 -8
11 -2 26 -6 33 -11 6 -4 16 -5 21 -1 5 3 13 0 16 -6 4 -5 13 -8 21 -5 7 3 16
1 20 -5 3 -6 13 -8 21 -5 8 3 20 3 26 -1 7 -5 23 -9 37 -11 14 -1 33 -3 43 -4
9 -1 17 -6 17 -11 0 -5 7 -7 15 -3 8 3 15 1 15 -4 0 -6 3 -9 8 -8 14 4 52 -14
52 -24 0 -6 3 -9 6 -5 7 7 110 -95 106 -105 -1 -5 3 -8 8 -8 6 0 10 -7 10 -15
0 -8 5 -15 11 -15 5 0 7 -4 4 -10 -3 -5 -1 -10 5 -10 6 0 8 -4 5 -10 -3 -5 -1
-10 4 -10 6 0 10 -3 10 -7 -1 -5 -1 -10 1 -13 19 -52 17 -225 -4 -259 -4 -6
-4 -15 -1 -21 3 -5 1 -10 -5 -10 -6 0 -8 -4 -5 -10 3 -5 1 -10 -5 -10 -6 0 -9
-4 -6 -9 3 -5 -1 -12 -10 -15 -8 -3 -12 -10 -9 -16 3 -5 1 -10 -5 -10 -6 0 -9
-4 -5 -9 3 -6 -3 -14 -12 -20 -10 -6 -14 -11 -10 -11 4 0 -9 -17 -30 -37 -21
-21 -41 -37 -46 -35 -4 1 -10 -5 -13 -13 -3 -8 -10 -12 -15 -9 -5 3 -9 0 -9
-6 0 -6 -4 -8 -10 -5 -5 3 -10 1 -10 -5 0 -7 -7 -10 -15 -6 -8 3 -15 1 -15 -5
0 -6 -6 -9 -14 -6 -8 3 -17 3 -20 -1 -15 -15 -120 -27 -144 -16 -16 7 -27 10
-74 18 -13 2 -23 5 -23 6 0 1 -11 4 -25 6 -36 4 -111 14 -135 17 -11 2 -26 6
-33 11 -6 4 -16 5 -21 1 -5 -3 -13 0 -16 6 -4 5 -13 8 -21 5 -7 -3 -16 -1 -19
4 -3 5 -13 9 -23 9 -16 0 -36 3 -114 16 -18 3 -42 7 -54 9 -11 1 -25 6 -32 10
-7 4 -16 5 -21 1 -5 -3 -13 0 -16 6 -4 5 -14 8 -22 5 -8 -3 -20 -3 -26 1 -7 5
-21 9 -32 10 -11 1 -33 5 -50 8 -16 3 -41 8 -55 10 -14 2 -38 6 -55 10 -16 3
-39 7 -50 9 -11 2 -20 5 -20 6 0 1 -9 4 -20 6 -11 2 -33 6 -50 9 -41 8 -97 16
-115 17 -8 0 -20 5 -27 10 -7 5 -17 7 -23 3 -5 -3 -10 -1 -10 5 0 7 -6 10 -14
7 -8 -3 -16 -1 -18 4 -2 5 -13 11 -26 12 -12 0 -22 5 -22 10 0 4 -4 5 -10 2
-5 -3 -10 -1 -10 5 0 6 -4 8 -10 5 -5 -3 -10 -1 -10 5 0 6 -5 8 -10 5 -6 -3
-13 1 -16 9 -3 9 -10 13 -15 10 -5 -3 -12 2 -15 10 -3 9 -10 14 -15 11 -4 -3
-12 3 -18 13 -5 10 -28 31 -50 46 -22 16 -38 32 -35 37 3 5 0 9 -5 9 -6 0 -11
7 -11 15 0 8 -5 15 -11 15 -5 0 -8 4 -4 9 3 5 1 12 -5 16 -6 4 -8 11 -5 16 4
5 2 9 -4 9 -5 0 -10 8 -10 18 0 9 -3 31 -6 47 -13 63 -16 92 -15 155 0 61 2
81 15 160 3 17 7 42 9 58 5 30 13 66 16 70 2 1 4 7 5 12 1 6 4 12 5 15 1 3 4
10 5 15 1 6 4 13 5 18 1 4 2 11 1 16 -1 4 4 14 10 22 7 8 9 17 6 21 -4 3 -2
12 5 20 6 7 8 16 5 20 -4 3 -2 12 4 20 6 7 8 13 4 13 -4 0 -2 7 5 15 7 8 9 15
5 15 -4 0 -2 7 5 15 7 8 9 15 5 15 -4 0 -2 7 5 15 7 8 9 15 5 15 -4 0 -2 7 5
15 7 8 9 15 5 15 -4 0 -2 6 4 13 6 8 8 17 4 20 -3 4 0 13 7 22 7 8 9 15 5 15
-4 0 -2 6 4 13 6 8 8 17 4 20 -3 4 0 13 7 22 7 8 9 15 5 15 -4 0 -2 6 4 13 6
8 8 17 4 20 -3 4 0 13 7 22 7 8 9 15 4 15 -4 0 -3 5 3 11 6 6 9 18 6 25 -3 8
0 14 7 14 6 0 9 4 5 9 -3 5 -1 12 5 16 6 4 8 11 5 16 -4 5 -1 9 5 9 6 0 8 5 5
10 -3 6 -1 10 5 10 7 0 10 6 7 14 -3 8 -3 17 1 21 4 4 8 11 8 16 1 5 3 11 4
14 1 3 3 8 4 13 1 4 7 17 14 28 6 12 8 24 5 28 -3 3 -1 6 6 6 7 0 9 5 6 10 -3
6 -1 10 5 10 6 0 8 5 5 10 -3 6 -1 10 5 10 6 0 8 5 5 10 -3 6 -1 10 5 10 6 0
8 5 5 10 -3 6 -1 10 5 10 6 0 8 5 5 10 -3 6 -1 10 5 10 6 0 8 5 5 10 -3 6 -1
10 5 10 6 0 8 5 5 10 -3 6 -1 10 5 10 6 0 8 5 5 10 -3 6 1 13 9 16 9 3 14 10
11 14 -3 4 2 11 11 14 8 3 13 10 9 15 -3 6 4 15 15 21 11 6 20 17 20 25 0 8 9
19 20 25 11 6 20 17 20 25 0 8 9 19 20 25 11 6 20 15 20 21 0 13 72 84 82 81
4 -1 15 9 24 23 9 14 20 22 25 20 4 -3 14 3 21 15 7 11 18 20 24 20 7 0 15 7
18 16 3 8 10 12 16 9 6 -3 13 1 16 9 3 9 10 13 15 10 5 -3 9 0 9 6 0 6 4 9 9
5 5 -3 12 -1 16 5 4 6 11 8 16 5 5 -4 9 -1 9 4 0 6 3 10 8 9 4 -1 17 3 28 10
12 6 24 8 28 5 3 -3 6 -1 6 6 0 7 5 9 10 6 6 -3 10 -1 10 5 0 6 5 8 10 5 6 -3
10 -1 10 5 0 6 5 8 10 5 6 -3 10 -1 10 5 0 6 4 9 9 6 12 -8 23 422 19 734 -2
210 6 556 16 672 1 14 10 38 19 52 10 14 16 26 13 26 -2 0 12 16 31 35 19 19
39 35 44 35 5 0 9 5 9 11 0 5 5 7 10 4 6 -3 10 -2 10 4 0 6 6 8 14 5 8 -3 17
-1 20 4 7 12 1080 15 1341 4z m688 -3182 c4 -1 12 -4 17 -5 6 -1 12 -4 15 -5
3 -1 10 -4 15 -5 6 -1 12 -3 15 -4 3 0 6 0 8 2 1 1 13 -8 27 -20 13 -13 28
-23 33 -23 14 0 57 -43 57 -57 0 -7 8 -17 18 -22 9 -6 13 -11 7 -11 -5 0 -4
-4 3 -9 30 -18 34 -114 32 -771 -1 -687 -1 -672 -18 -683 -7 -5 -10 -12 -7
-18 4 -5 -1 -12 -9 -15 -9 -3 -16 -10 -16 -14 0 -12 -74 -85 -83 -82 -4 1 -10
-5 -13 -13 -3 -8 -10 -12 -15 -9 -5 3 -9 0 -9 -6 0 -6 -4 -9 -9 -5 -5 3 -12 1
-16 -5 -4 -6 -11 -8 -16 -4 -5 3 -15 1 -22 -4 -7 -5 -43 -8 -82 -6 -88 4 -104
7 -135 24 -14 8 -28 14 -32 15 -9 0 -101 95 -92 95 4 0 -1 7 -12 15 -10 8 -15
15 -10 15 5 0 3 7 -4 15 -27 32 -30 101 -32 715 -2 513 1 634 17 659 3 6 4 15
0 20 -3 5 -1 12 5 16 6 4 8 11 5 16 -4 5 -1 9 5 9 6 0 8 5 4 12 -4 6 1 17 11
25 11 7 16 13 11 13 -4 0 12 18 35 40 23 22 46 40 51 40 4 0 8 4 8 9 0 10 39
27 53 23 4 -1 7 3 7 9 0 5 4 8 8 5 4 -2 13 -2 19 2 10 6 127 8 146 2z m-783
-241 c3 -1 8 -1 13 0 4 0 7 -4 7 -10 0 -5 4 -8 9 -4 5 3 16 -2 24 -10 9 -8 20
-15 26 -15 6 0 11 -5 11 -10 0 -6 11 -16 25 -22 13 -6 27 -18 30 -27 2 -9 16
-28 29 -42 14 -15 22 -30 19 -33 -4 -3 -1 -6 6 -6 7 0 9 -4 6 -10 -3 -5 -1
-10 6 -10 7 0 9 -3 6 -7 -4 -3 0 -17 9 -31 14 -22 15 -88 10 -666 -6 -588 -8
-697 -16 -718 -5 -14 -8 -22 -15 -45 -4 -13 -11 -23 -16 -23 -5 0 -8 -3 -7 -7
6 -17 -98 -121 -114 -115 -5 1 -8 -3 -8 -9 0 -5 -4 -7 -10 -4 -5 3 -10 1 -10
-5 0 -6 -4 -8 -10 -5 -5 3 -10 1 -10 -5 0 -7 -8 -9 -19 -5 -11 3 -22 1 -26 -5
-3 -5 -37 -10 -75 -10 -38 0 -72 5 -75 10 -4 6 -15 8 -26 5 -11 -4 -19 -2 -19
5 0 6 -4 8 -10 5 -5 -3 -10 -1 -10 5 0 6 -4 8 -10 5 -5 -3 -10 -1 -10 5 0 6
-4 8 -10 5 -5 -3 -10 -2 -10 3 0 6 -16 19 -35 31 -19 11 -40 32 -45 46 -5 14
-14 25 -20 25 -6 0 -8 5 -5 10 3 6 1 10 -5 10 -6 0 -8 5 -5 10 3 6 2 10 -3 10
-5 0 -10 6 -11 13 -8 48 -9 1107 0 1112 5 4 7 11 4 16 -4 5 -1 9 5 9 6 0 8 5
5 10 -3 6 -1 10 4 10 6 0 10 3 9 8 -1 4 3 17 10 28 6 12 8 24 5 28 -3 3 -1 6
6 6 8 0 11 7 7 15 -3 8 -1 15 4 15 5 0 7 7 4 15 -4 8 -1 15 5 15 6 0 8 7 5 15
-4 8 -1 15 6 15 7 0 10 7 7 15 -4 8 -2 17 3 20 5 3 7 12 4 19 -3 8 -1 17 5 21
14 8 14 89 1 135 -11 37 -5 74 11 65 5 -4 12 1 15 9 3 9 10 16 15 16 5 0 18 9
29 20 12 12 25 18 30 15 6 -4 10 -3 10 2 0 6 182 9 200 2z m-1825 -535 c22 -2
50 -5 62 -7 12 -1 24 -5 28 -9 4 -4 13 -4 20 -2 7 3 16 0 20 -5 3 -6 11 -9 16
-6 5 4 15 3 21 -1 12 -8 23 -10 83 -19 17 -3 46 -7 65 -10 19 -3 43 -6 53 -6
9 0 17 -5 17 -11 0 -6 3 -9 6 -6 9 10 39 -26 41 -48 7 -93 9 -1414 2 -1414 -5
0 -9 -6 -9 -14 0 -8 -7 -16 -15 -20 -8 -3 -14 -9 -13 -13 3 -10 -90 -102 -97
-95 -2 3 -7 -3 -11 -12 -3 -9 -10 -13 -15 -10 -5 3 -9 0 -9 -5 0 -6 -3 -10 -7
-10 -5 1 -11 0 -15 -1 -5 -1 -12 -4 -18 -5 -5 -1 -11 -3 -12 -5 -21 -17 -167
-15 -195 3 -7 5 -17 6 -22 2 -5 -3 -12 -1 -16 5 -4 6 -11 8 -16 5 -5 -4 -9 -1
-9 4 0 6 -4 10 -9 9 -10 -3 -111 100 -111 113 0 5 -5 9 -11 9 -5 0 -7 5 -4 10
3 6 1 10 -4 10 -6 0 -10 3 -10 8 1 4 0 9 -1 12 -17 34 -24 278 -22 800 2 583
3 638 15 658 5 6 5 17 1 23 -3 6 -3 14 2 18 5 3 14 15 21 26 6 11 16 19 22 18
6 -2 11 0 11 5 0 7 68 6 145 -4z m711 -135 c3 -5 10 -7 15 -3 5 3 15 1 22 -4
7 -5 19 -10 27 -11 46 -4 75 -9 78 -11 11 -12 266 -15 324 -5 21 4 46 4 55 0
10 -5 22 -7 26 -6 5 1 6 -256 3 -571 -4 -315 -7 -592 -7 -615 0 -24 -4 -43
-10 -43 -5 0 -9 -6 -8 -12 5 -26 -37 -94 -88 -145 -28 -28 -54 -49 -57 -46 -3
3 -8 -2 -12 -11 -3 -9 -10 -13 -15 -10 -5 3 -9 0 -9 -6 0 -6 -4 -8 -10 -5 -5
3 -10 2 -10 -3 0 -11 -12 -12 -120 -13 -94 0 -133 6 -138 21 -2 6 -8 8 -13 4
-5 -3 -9 0 -9 6 0 6 -5 8 -10 5 -6 -3 -13 1 -16 9 -3 9 -11 13 -17 9 -5 -3 -7
-1 -4 5 4 5 -8 22 -25 38 -18 15 -33 31 -33 36 0 5 -7 13 -15 18 -8 5 -10 10
-5 10 6 0 1 7 -9 15 -11 8 -16 15 -10 15 5 0 3 4 -3 8 -7 5 -15 33 -18 63 -5
45 -6 1201 -2 1250 1 12 14 16 59 16 32 0 61 -4 64 -8z m2009 -1719 c6 -1 13
-2 18 -1 4 0 7 -4 7 -10 0 -5 5 -7 10 -4 6 3 10 1 10 -5 0 -6 5 -8 10 -5 6 3
10 1 10 -5 0 -6 4 -9 9 -5 6 3 15 -4 21 -15 6 -11 15 -18 20 -15 5 3 14 -4 20
-15 6 -11 15 -18 20 -15 5 3 14 -4 20 -15 6 -11 15 -18 20 -15 5 3 14 -4 20
-15 6 -11 15 -18 20 -15 5 3 14 -4 20 -15 6 -11 17 -20 25 -20 8 0 19 -9 25
-20 6 -11 15 -18 20 -15 5 3 14 -4 20 -15 6 -11 17 -20 25 -20 8 0 19 -9 25
-20 6 -11 15 -18 20 -15 5 3 14 -4 20 -15 6 -11 17 -20 25 -20 8 0 19 -9 25
-20 6 -11 15 -18 20 -15 5 3 14 -4 20 -15 6 -11 17 -20 25 -20 8 0 19 -9 25
-20 6 -11 15 -18 19 -15 5 2 16 -7 25 -20 9 -14 21 -23 26 -20 5 3 14 -4 20
-15 6 -11 17 -20 25 -20 8 0 19 -9 25 -20 6 -11 15 -18 20 -15 5 3 17 -6 26
-20 9 -13 20 -22 25 -20 4 3 13 -4 19 -15 6 -11 17 -20 25 -20 8 0 19 -9 25
-20 6 -11 15 -18 20 -15 5 3 17 -6 26 -20 9 -13 20 -23 24 -20 4 3 15 -7 24
-20 9 -14 21 -23 26 -20 5 3 14 -4 20 -15 6 -11 17 -20 25 -20 8 0 19 -9 25
-20 6 -11 15 -18 20 -15 5 3 17 -6 26 -20 9 -13 20 -23 24 -20 4 3 15 -7 24
-20 9 -14 21 -23 26 -20 5 3 14 -4 20 -15 6 -11 15 -18 20 -15 5 3 17 -6 26
-20 9 -13 20 -22 25 -20 4 3 13 -4 19 -15 6 -11 17 -20 25 -20 8 0 19 -9 25
-20 6 -11 15 -18 20 -15 5 3 14 -4 20 -15 6 -11 17 -20 25 -20 8 0 19 -9 25
-20 6 -11 15 -18 19 -15 5 2 16 -7 25 -20 9 -14 21 -23 26 -20 5 3 14 -4 20
-15 6 -11 15 -18 20 -15 5 3 17 -6 26 -20 9 -13 20 -22 25 -20 4 3 13 -4 19
-15 6 -11 17 -20 25 -20 8 0 19 -9 25 -20 6 -11 15 -18 19 -15 5 2 16 -7 25
-20 9 -14 21 -23 25 -20 5 2 16 -7 25 -20 9 -14 21 -23 26 -20 5 3 17 -6 26
-20 9 -13 20 -22 25 -20 4 3 15 -5 24 -19 9 -13 25 -26 35 -29 14 -4 19 -13
18 -31 -1 -14 -6 -26 -11 -26 -4 0 -6 -4 -3 -9 3 -5 -1 -12 -10 -15 -8 -3 -12
-10 -9 -16 3 -5 1 -10 -4 -10 -6 0 -11 -7 -11 -15 0 -8 -4 -15 -10 -15 -5 0
-10 -6 -10 -14 0 -8 -7 -17 -16 -20 -8 -3 -13 -10 -9 -15 3 -6 -4 -15 -15 -21
-11 -6 -20 -17 -20 -24 0 -8 -7 -16 -15 -20 -8 -3 -15 -12 -15 -20 0 -9 -9
-20 -20 -26 -11 -6 -20 -17 -20 -25 0 -8 -9 -19 -20 -25 -11 -6 -20 -17 -20
-24 0 -8 -11 -21 -25 -30 -14 -9 -23 -21 -20 -25 2 -5 -7 -16 -20 -25 -14 -9
-23 -21 -20 -26 3 -5 -4 -14 -15 -20 -11 -6 -20 -17 -20 -24 0 -8 -7 -17 -16
-20 -8 -3 -13 -10 -9 -15 3 -6 -4 -15 -15 -21 -11 -6 -18 -15 -15 -20 3 -5 -4
-14 -15 -20 -11 -6 -18 -15 -15 -21 4 -5 -1 -12 -9 -15 -9 -3 -13 -10 -10 -15
3 -5 -2 -12 -10 -15 -9 -3 -13 -10 -10 -15 3 -5 0 -9 -5 -9 -6 0 -11 -7 -11
-15 0 -8 -5 -15 -12 -15 -6 0 -9 -3 -5 -6 3 -4 -1 -13 -9 -21 -8 -8 -12 -19
-9 -24 4 -5 1 -9 -5 -9 -6 0 -8 -4 -5 -10 3 -5 1 -10 -5 -10 -6 0 -8 -4 -5
-10 3 -5 1 -10 -5 -10 -6 0 -9 -4 -5 -9 3 -5 1 -12 -5 -16 -6 -4 -8 -10 -5
-14 6 -11 -72 -24 -87 -15 -5 3 -42 8 -81 11 -70 4 -95 7 -167 18 -78 13 -175
24 -255 31 -174 14 -303 28 -315 34 -3 1 -8 2 -12 1 -5 0 -8 4 -8 10 0 5 -4 7
-10 4 -5 -3 -10 -1 -10 5 0 6 -4 8 -10 5 -5 -3 -10 -1 -10 5 0 6 -4 8 -10 5
-5 -3 -10 -1 -10 6 0 7 -3 9 -6 6 -4 -3 -16 -1 -28 5 -11 7 -24 13 -28 14 -5
1 -10 3 -13 4 -3 1 -9 4 -15 5 -5 1 -12 4 -15 5 -3 1 -9 4 -15 5 -5 1 -11 3
-12 5 -2 1 -12 3 -22 5 -11 2 -23 11 -28 20 -5 8 -13 13 -19 10 -5 -4 -9 -1
-9 5 0 6 -4 9 -9 5 -5 -3 -12 -1 -16 5 -4 6 -10 8 -15 5 -5 -3 -11 -1 -15 5
-4 6 -10 8 -15 5 -5 -3 -11 -1 -15 5 -4 6 -11 8 -16 5 -5 -4 -9 -1 -9 5 0 6
-4 8 -10 5 -5 -3 -10 -1 -10 5 0 6 -4 9 -9 5 -5 -3 -12 -1 -16 5 -4 6 -11 8
-16 5 -5 -4 -9 -1 -9 6 0 7 -3 9 -6 6 -4 -3 -16 -1 -28 5 -11 7 -24 11 -28 10
-5 -1 -8 3 -8 9 0 5 -4 7 -10 4 -5 -3 -10 -1 -10 5 0 6 -4 9 -9 5 -5 -3 -12
-1 -16 5 -4 6 -11 8 -16 5 -5 -4 -9 -1 -9 5 0 6 -4 8 -10 5 -5 -3 -10 -1 -10
5 0 6 -4 9 -9 5 -5 -3 -12 -1 -16 5 -4 6 -11 8 -16 5 -5 -4 -9 -1 -9 5 0 6 -4
8 -10 5 -5 -3 -10 -1 -10 5 0 6 -4 9 -9 5 -5 -3 -12 -1 -16 5 -4 6 -11 8 -16
5 -5 -4 -9 -1 -9 5 0 6 -4 9 -9 5 -5 -3 -12 -1 -16 5 -4 6 -11 8 -16 5 -5 -4
-9 -1 -9 5 0 6 -4 8 -10 5 -5 -3 -10 -1 -10 5 0 6 -4 9 -9 5 -5 -3 -12 -1 -16
5 -4 6 -11 8 -16 5 -5 -4 -9 -1 -9 5 0 6 -4 8 -10 5 -5 -3 -10 -1 -10 5 0 6
-4 9 -9 5 -5 -3 -12 -1 -16 5 -4 6 -10 8 -15 5 -5 -3 -11 -1 -15 5 -4 6 -11 8
-16 5 -5 -4 -9 -1 -9 5 0 6 -4 8 -10 5 -5 -3 -10 -1 -10 5 0 6 -4 9 -9 5 -5
-3 -12 -1 -16 5 -4 6 -11 8 -16 5 -5 -4 -9 -1 -9 5 0 6 -4 8 -10 5 -5 -3 -10
-1 -10 6 0 7 -3 9 -6 6 -4 -3 -16 -1 -28 5 -11 7 -24 11 -28 10 -5 -1 -8 3 -8
9 0 5 -4 7 -10 4 -5 -3 -10 -1 -10 4 0 6 -3 10 -7 9 -5 -1 -18 3 -29 10 -12 6
-24 8 -28 5 -3 -3 -6 -1 -6 6 0 7 -4 9 -10 6 -5 -3 -10 -1 -10 5 0 6 -4 9 -9
5 -5 -3 -12 -1 -16 5 -4 6 -11 8 -16 5 -5 -4 -9 -1 -9 5 0 6 -4 8 -10 5 -5 -3
-10 -1 -10 4 0 6 -3 10 -7 10 -5 -1 -11 0 -15 1 -5 1 -12 4 -18 5 -5 1 -12 4
-15 5 -3 1 -8 3 -12 4 -19 5 -108 52 -111 59 -2 4 -8 5 -13 1 -5 -3 -9 0 -9 5
0 6 -7 11 -15 11 -8 0 -15 5 -15 10 0 6 -4 10 -9 10 -12 0 -71 59 -71 71 0 5
-5 9 -11 9 -5 0 -8 4 -5 9 3 5 -1 14 -9 21 -8 7 -12 16 -9 21 3 5 1 9 -3 9 -8
0 -10 206 -3 220 1 3 2 8 1 13 0 4 4 7 10 7 5 0 8 4 5 9 -3 5 1 12 10 15 8 3
13 10 9 15 -3 6 4 15 15 21 11 6 18 15 16 19 -7 10 50 62 58 54 3 -4 6 -1 6 6
0 7 5 9 10 6 6 -3 10 -1 10 5 0 6 5 8 10 5 6 -3 10 -1 10 4 0 6 3 10 8 10 4
-1 10 0 15 1 4 1 12 4 17 5 6 1 11 4 13 5 11 11 143 11 155 0 1 -1 7 -4 12 -5
6 -1 12 -4 15 -5 3 -1 10 -4 15 -5 6 -1 12 -4 15 -5 3 -1 10 -4 15 -5 6 -1 13
-4 18 -5 4 -1 10 -2 15 -1 4 0 7 -4 7 -10 0 -5 4 -8 9 -4 5 3 12 1 16 -5 4 -6
10 -8 15 -5 5 3 11 1 15 -5 4 -6 11 -8 16 -5 5 4 9 1 9 -5 0 -6 4 -9 9 -5 5 3
12 1 16 -5 4 -6 10 -8 15 -5 5 3 11 1 15 -5 4 -6 11 -8 16 -5 5 4 9 1 9 -5 0
-6 5 -8 10 -5 6 3 10 1 10 -5 0 -6 4 -9 9 -5 5 3 12 1 16 -5 4 -6 11 -8 16 -5
5 4 9 1 9 -5 0 -6 5 -8 10 -5 6 3 10 1 10 -5 0 -6 5 -8 10 -5 6 3 10 1 10 -4
0 -6 3 -10 8 -9 4 1 17 -3 28 -10 12 -6 24 -8 28 -5 3 3 6 1 6 -6 0 -7 4 -10
9 -6 5 3 12 1 16 -5 4 -6 11 -8 16 -5 5 4 9 1 9 -5 0 -6 5 -8 10 -5 6 3 10 1
10 -5 0 -6 4 -9 9 -5 5 3 12 1 16 -5 4 -6 11 -8 16 -5 5 4 9 1 9 -5 0 -6 4 -9
9 -5 5 3 12 1 16 -5 4 -6 11 -8 16 -5 5 4 9 1 9 -5 0 -6 5 -8 10 -5 6 3 10 1
10 -5 0 -6 4 -9 9 -5 5 3 12 1 16 -5 4 -6 11 -8 16 -5 5 4 9 1 9 -5 0 -6 5 -8
10 -5 6 3 10 1 10 -5 0 -6 5 -8 10 -5 6 3 10 1 10 -5 0 -6 5 -8 10 -5 6 3 10
1 10 -5 0 -6 4 -9 9 -5 5 3 12 1 16 -5 4 -6 10 -8 15 -5 5 3 11 1 15 -4 3 -6
12 -8 20 -4 8 3 15 0 15 -7 0 -6 4 -9 9 -5 5 3 12 1 16 -5 4 -6 11 -8 16 -5 5
4 9 1 9 -5 0 -6 5 -8 10 -5 6 3 10 1 10 -5 0 -6 5 -8 10 -5 6 3 10 1 10 -5 0
-6 5 -8 10 -5 6 3 10 1 10 -5 0 -6 5 -8 10 -5 6 3 10 1 10 -5 0 -6 4 -9 9 -5
5 3 12 1 16 -5 4 -6 11 -8 16 -5 5 4 9 1 9 -5 0 -6 5 -8 10 -5 6 3 10 1 10 -5
0 -6 4 -9 9 -5 5 3 12 1 16 -5 4 -6 11 -8 16 -5 5 4 9 1 9 -5 0 -6 5 -8 10 -5
6 3 10 1 10 -5 0 -6 4 -9 9 -5 5 3 12 1 16 -5 4 -6 11 -8 16 -5 5 4 9 1 9 -6
0 -7 3 -9 7 -6 3 4 12 2 20 -4 7 -6 13 -8 13 -4 0 4 7 2 15 -5 8 -7 15 -9 15
-4 0 5 4 3 9 -4 4 -7 18 -14 29 -15 12 -1 22 -5 22 -10 0 -4 5 -5 10 -2 6 3
10 1 10 -5 0 -6 5 -8 10 -5 6 3 10 1 10 -4 0 -6 3 -10 8 -9 4 1 17 -3 28 -10
12 -6 24 -8 28 -5 3 3 6 1 6 -6 0 -7 5 -9 10 -6 6 3 10 1 10 -5 0 -6 4 -9 9
-5 5 3 12 1 16 -5 4 -6 11 -8 16 -5 5 4 9 1 9 -6 0 -7 3 -9 6 -6 4 3 16 1 28
-5 11 -7 24 -11 29 -10 4 1 7 -3 7 -9 0 -5 4 -8 9 -4 5 3 12 1 16 -5 4 -6 11
-8 16 -5 5 4 9 1 9 -5 0 -6 5 -8 10 -5 6 3 10 1 10 -5 0 -6 5 -8 10 -5 6 3 10
1 10 -5 0 -6 5 -8 10 -5 6 3 10 1 10 -6 0 -7 3 -9 6 -6 4 3 16 1 28 -5 11 -7
24 -11 29 -10 4 1 7 -3 7 -9 0 -5 4 -8 9 -4 5 3 12 1 16 -5 4 -6 10 -8 15 -5
5 3 11 1 15 -5 4 -6 10 -8 15 -5 5 3 11 1 15 -5 4 -6 11 -8 16 -5 5 4 9 1 9
-6 0 -7 3 -9 6 -6 4 3 16 1 28 -5 11 -7 24 -11 29 -10 4 1 7 -3 7 -9 0 -5 5
-7 10 -4 6 3 10 1 10 -6 0 -7 3 -9 7 -6 3 4 17 0 30 -8 13 -9 23 -13 23 -9 0
4 6 2 13 -3 17 -13 72 -11 72 4 0 6 3 15 8 19 12 13 8 42 -8 48 -8 3 -15 12
-15 21 0 8 -5 15 -10 15 -6 0 -20 11 -32 25 -11 13 -25 22 -29 19 -4 -2 -16 7
-25 21 -9 14 -22 25 -29 25 -7 0 -20 11 -29 25 -9 14 -21 23 -25 20 -5 -2 -16
7 -25 20 -9 14 -21 23 -26 20 -5 -3 -14 4 -20 15 -6 11 -17 20 -25 20 -8 0
-19 9 -25 20 -6 11 -15 18 -20 15 -5 -3 -14 4 -20 15 -6 11 -17 20 -25 20 -8
0 -19 9 -25 20 -6 11 -15 18 -20 15 -5 -3 -14 4 -20 15 -6 11 -15 18 -20 15
-5 -3 -17 6 -26 20 -9 13 -20 22 -25 20 -4 -3 -13 4 -19 15 -6 11 -15 18 -20
15 -5 -3 -17 6 -26 20 -9 13 -20 22 -25 20 -4 -3 -13 4 -19 15 -6 11 -17 20
-25 20 -8 0 -19 9 -25 20 -6 11 -15 18 -20 15 -5 -3 -14 4 -20 15 -6 11 -17
20 -25 20 -8 0 -19 9 -25 20 -6 11 -15 18 -20 15 -5 -3 -14 4 -20 15 -6 11
-17 20 -25 20 -8 0 -19 9 -25 20 -6 11 -15 18 -20 15 -5 -3 -17 6 -26 20 -9
13 -20 22 -25 20 -4 -3 -13 4 -19 15 -6 11 -17 20 -25 20 -8 0 -19 9 -25 20
-6 11 -15 18 -20 15 -5 -3 -17 6 -26 20 -9 13 -20 22 -25 20 -4 -3 -13 4 -19
15 -6 11 -17 20 -25 20 -8 0 -19 9 -25 20 -6 11 -15 18 -20 15 -5 -3 -17 6
-26 20 -9 13 -20 23 -24 20 -4 -3 -15 7 -24 20 -9 14 -21 23 -26 20 -5 -3 -14
4 -20 15 -6 11 -17 20 -25 20 -8 0 -19 9 -25 20 -6 11 -17 20 -25 20 -8 0 -19
9 -25 20 -6 11 -17 20 -25 20 -8 0 -19 9 -25 20 -6 11 -15 19 -20 17 -5 -1
-21 12 -35 28 -15 17 -23 23 -20 15 6 -13 -13 6 -70 73 -8 9 -12 17 -7 17 4 0
0 5 -8 10 -8 5 -16 14 -16 20 -1 5 -3 11 -4 13 -6 7 -4 250 3 254 4 2 5 9 2
14 -4 5 1 12 9 15 9 3 13 10 10 15 -3 5 0 9 6 9 6 0 16 11 22 25 6 14 17 25
25 25 7 0 18 9 25 20 7 11 18 20 25 20 7 0 13 5 13 11 0 5 4 8 9 4 5 -3 12 -1
16 5 4 6 10 8 14 6 4 -3 12 -2 18 2 10 6 180 7 208 2z m-3345 -14 c8 -3 16 -5
18 -5 1 -1 3 0 5 1 4 4 72 -36 79 -47 4 -5 8 -6 8 -2 0 13 76 -71 90 -100 19
-40 21 -49 22 -133 1 -71 -17 -150 -34 -150 -4 0 -8 -6 -8 -12 0 -16 -84 -98
-99 -98 -6 0 -11 -4 -11 -10 0 -5 -7 -10 -15 -10 -8 0 -15 -5 -15 -11 0 -5 -4
-7 -10 -4 -5 3 -10 1 -10 -4 0 -6 -7 -11 -15 -11 -9 0 -18 -7 -21 -15 -4 -8
-10 -13 -15 -10 -4 3 -13 -4 -19 -15 -6 -11 -15 -18 -21 -15 -5 4 -12 -1 -15
-9 -3 -9 -12 -16 -20 -16 -8 0 -14 -4 -14 -10 0 -5 -7 -10 -15 -10 -9 0 -18
-7 -21 -15 -4 -8 -10 -12 -15 -9 -5 3 -12 -2 -15 -10 -3 -9 -10 -13 -15 -10
-5 3 -12 -2 -15 -10 -3 -9 -10 -13 -15 -10 -5 3 -9 0 -9 -5 0 -6 -7 -11 -15
-11 -8 0 -15 -4 -15 -10 0 -5 -7 -10 -15 -10 -8 0 -15 -4 -15 -10 0 -5 -7 -10
-15 -10 -8 0 -15 -4 -15 -10 0 -5 -7 -10 -15 -10 -8 0 -15 -4 -15 -10 0 -5 -7
-10 -15 -10 -8 0 -15 -4 -15 -10 0 -5 -7 -10 -15 -10 -8 0 -15 -4 -15 -10 0
-5 -7 -10 -15 -10 -8 0 -15 -4 -15 -10 0 -5 -7 -10 -15 -10 -8 0 -15 -4 -15
-10 0 -5 -7 -10 -15 -10 -8 0 -15 -4 -15 -10 0 -5 -7 -10 -15 -10 -8 0 -15 -4
-15 -10 0 -5 -7 -10 -15 -10 -9 0 -18 -7 -21 -15 -4 -8 -10 -12 -15 -9 -5 3
-12 -2 -15 -10 -3 -9 -12 -16 -20 -16 -8 0 -14 -4 -14 -10 0 -5 -7 -10 -15
-10 -9 0 -18 -7 -21 -15 -4 -8 -12 -15 -19 -15 -7 0 -16 -7 -19 -16 -3 -8 -10
-12 -16 -9 -6 3 -13 -1 -16 -9 -3 -9 -13 -16 -20 -16 -8 0 -17 -7 -20 -15 -4
-8 -12 -15 -20 -15 -8 0 -14 -4 -14 -10 0 -5 -7 -10 -15 -10 -8 0 -15 -4 -15
-10 0 -5 -7 -10 -15 -10 -8 0 -15 -4 -15 -10 0 -5 -7 -10 -15 -10 -8 0 -15 -4
-15 -10 0 -5 -4 -10 -10 -10 -24 0 -70 -67 -70 -103 0 -36 28 -84 53 -92 32
-10 78 -11 84 -2 2 4 9 5 14 2 5 -4 9 -1 9 6 0 7 3 10 6 6 3 -3 15 3 27 13 11
11 23 17 27 15 5 -3 11 2 14 11 3 8 10 13 15 10 5 -3 11 1 15 9 3 8 12 15 21
15 8 0 15 5 15 10 0 6 7 10 15 10 8 0 15 5 15 10 0 6 7 10 15 10 8 0 15 5 15
10 0 6 7 10 15 10 8 0 15 5 15 10 0 6 7 10 15 10 8 0 15 5 15 10 0 6 7 10 15
10 8 0 15 5 15 10 0 6 6 10 14 10 8 0 16 7 20 15 3 8 12 15 20 15 7 0 17 7 20
16 3 8 10 12 16 9 6 -3 13 1 16 9 3 9 12 16 19 16 7 0 16 7 19 16 3 8 10 13
15 10 5 -3 12 1 15 10 3 8 10 13 15 10 5 -3 12 1 15 10 3 8 10 13 15 10 5 -3
12 1 15 10 3 8 10 13 15 10 5 -3 12 1 15 10 3 8 10 12 16 9 5 -3 10 -1 10 4 0
6 7 11 15 11 8 0 15 5 15 10 0 6 7 10 15 10 8 0 15 5 15 10 0 6 6 10 14 10 8
0 17 7 20 16 3 8 10 13 15 10 5 -3 12 1 15 10 3 8 10 13 15 10 5 -3 12 1 15
10 3 8 10 12 16 9 6 -3 13 1 16 9 3 9 12 16 19 16 7 0 16 7 19 16 3 8 10 13
15 9 6 -3 15 4 21 15 6 11 15 20 21 20 5 0 19 9 31 20 12 10 25 17 30 14 4 -3
8 0 8 5 0 6 7 11 15 11 8 0 15 5 15 10 0 6 7 10 15 10 8 0 15 5 15 10 0 6 7
10 15 10 8 0 15 5 15 10 0 6 7 10 15 10 8 0 15 5 15 10 0 6 6 10 14 10 8 0 17
7 20 16 3 8 10 12 16 9 6 -3 13 1 16 9 3 9 12 16 20 16 8 0 14 5 14 10 0 6 7
10 15 10 8 0 15 5 15 10 0 6 7 10 15 10 8 0 15 5 15 10 0 6 7 10 15 10 8 0 15
5 15 10 0 6 7 10 15 10 8 0 15 5 15 10 0 6 7 10 15 10 8 0 15 5 15 10 0 6 6
10 14 10 8 0 17 7 20 16 3 8 10 13 15 9 6 -3 15 4 21 15 6 11 17 20 25 20 8 0
15 4 15 10 0 5 11 12 25 16 14 3 25 10 25 15 0 5 6 9 14 9 8 0 17 7 20 16 3 8
10 13 15 10 5 -3 12 1 15 10 3 8 10 12 16 9 5 -3 10 -2 10 4 0 9 29 23 40 19
3 -1 15 4 28 11 35 19 62 24 112 24 38 0 79 -6 88 -13 2 -3 18 -7 31 -9 5 0
16 -7 23 -13 8 -7 23 -18 33 -24 11 -6 24 -20 30 -32 5 -12 13 -22 17 -22 5 0
8 -7 8 -15 0 -8 5 -15 12 -15 6 0 8 -3 5 -6 -3 -4 -1 -16 5 -28 7 -11 13 -25
14 -31 0 -5 2 -13 3 -17 2 -7 4 -131 2 -143 -3 -15 -6 -21 -18 -33 -7 -7 -13
-20 -13 -28 0 -8 -5 -14 -12 -14 -6 0 -9 -2 -6 -5 7 -7 -54 -70 -65 -67 -4 1
-10 -5 -13 -13 -3 -8 -10 -12 -15 -9 -5 3 -12 -2 -15 -10 -3 -9 -10 -13 -15
-10 -5 3 -12 -2 -15 -10 -3 -9 -12 -16 -20 -16 -8 0 -14 -4 -14 -10 0 -5 -6
-10 -14 -10 -8 0 -17 -7 -20 -16 -3 -8 -10 -12 -16 -9 -6 3 -13 -1 -16 -9 -3
-9 -12 -16 -20 -16 -8 0 -14 -4 -14 -10 0 -5 -7 -10 -15 -10 -8 0 -15 -4 -15
-10 0 -5 -7 -10 -15 -10 -8 0 -15 -4 -15 -10 0 -5 -7 -10 -15 -10 -8 0 -15 -4
-15 -10 0 -5 -7 -10 -15 -10 -8 0 -15 -4 -15 -10 0 -5 -7 -10 -15 -10 -9 0
-18 -7 -21 -15 -4 -8 -10 -12 -15 -9 -5 3 -12 -2 -15 -10 -3 -9 -10 -13 -15
-10 -5 3 -12 -2 -15 -10 -3 -9 -10 -13 -15 -10 -5 3 -12 -2 -15 -10 -3 -9 -12
-16 -20 -16 -8 0 -14 -4 -14 -10 0 -5 -7 -10 -15 -10 -8 0 -15 -4 -15 -10 0
-5 -7 -10 -15 -10 -8 0 -15 -4 -15 -10 0 -5 -7 -10 -15 -10 -8 0 -15 -4 -15
-10 0 -5 -7 -10 -15 -10 -8 0 -15 -4 -15 -10 0 -5 -6 -10 -14 -10 -8 0 -17 -7
-20 -16 -3 -8 -10 -12 -16 -9 -6 3 -13 -1 -16 -9 -3 -9 -12 -16 -20 -16 -8 0
-14 -4 -14 -10 0 -5 -7 -10 -15 -10 -9 0 -18 -7 -21 -15 -4 -8 -12 -15 -19
-15 -7 0 -16 -7 -19 -16 -3 -8 -10 -12 -16 -9 -6 3 -13 -1 -16 -9 -3 -9 -9
-14 -14 -11 -4 2 -16 -5 -28 -15 -12 -11 -26 -20 -32 -20 -5 0 -10 -5 -10 -11
0 -5 -4 -7 -10 -4 -5 3 -10 1 -10 -4 0 -6 -7 -11 -15 -11 -8 0 -15 -4 -15 -10
0 -5 -7 -10 -15 -10 -9 0 -18 -7 -21 -15 -4 -8 -13 -15 -20 -15 -8 0 -17 -7
-20 -15 -4 -8 -12 -15 -19 -15 -7 0 -16 -7 -19 -16 -3 -8 -10 -12 -16 -9 -6 3
-13 -1 -16 -9 -3 -9 -12 -16 -20 -16 -8 0 -14 -4 -14 -10 0 -5 -6 -10 -14 -10
-8 0 -17 -7 -20 -16 -3 -8 -10 -12 -16 -9 -6 3 -13 -1 -16 -9 -3 -9 -12 -16
-20 -16 -8 0 -14 -4 -14 -10 0 -5 -7 -10 -15 -10 -8 0 -15 -4 -15 -10 0 -5 -7
-10 -15 -10 -8 0 -15 -4 -15 -10 0 -5 -7 -10 -15 -10 -8 0 -15 -4 -15 -10 0
-5 -6 -10 -13 -10 -17 0 -81 -61 -92 -87 -11 -25 -13 -66 -4 -78 4 -5 8 -14 8
-18 1 -13 28 -36 35 -30 3 4 6 2 6 -3 0 -25 114 1 148 33 7 7 20 13 28 13 8 0
14 5 14 10 0 6 7 10 15 10 8 0 15 5 15 10 0 6 7 10 15 10 8 0 15 5 15 10 0 6
7 10 15 10 8 0 15 5 15 10 0 6 6 10 14 10 8 0 17 7 20 16 3 8 10 13 15 10 5
-3 12 1 15 10 3 8 10 13 15 10 5 -3 11 1 15 9 3 8 12 15 21 15 8 0 15 5 15 10
0 6 7 10 15 10 8 0 15 5 15 10 0 6 7 10 15 10 8 0 15 5 15 10 0 6 7 10 15 10
8 0 15 5 15 10 0 6 6 10 14 10 8 0 17 7 20 16 3 8 10 13 15 10 5 -3 11 1 15 9
3 8 12 15 21 15 8 0 15 5 15 10 0 6 7 10 15 10 8 0 15 5 15 10 0 6 7 10 15 10
8 0 15 5 15 10 0 6 6 10 14 10 8 0 17 7 20 16 3 8 10 12 16 9 6 -3 13 1 16 9
3 9 12 16 20 16 8 0 14 5 14 10 0 6 7 10 15 10 8 0 15 5 15 10 0 6 7 10 15 10
8 0 15 5 15 10 0 6 6 10 14 10 8 0 17 7 20 16 3 8 10 12 16 9 5 -3 10 -1 10 4
0 6 7 11 15 11 8 0 15 5 15 10 0 6 7 10 15 10 8 0 15 5 15 10 0 6 7 10 15 10
8 0 15 5 15 10 0 6 7 10 15 10 8 0 15 5 15 10 0 6 6 10 13 10 7 0 18 9 25 20
7 12 17 18 22 15 6 -4 13 1 16 9 3 9 12 16 20 16 8 0 14 5 14 10 0 6 7 10 15
10 8 0 15 5 15 10 0 6 7 10 15 10 8 0 15 5 15 10 0 6 7 10 15 10 8 0 15 5 15
10 0 6 7 10 15 10 8 0 15 5 15 10 0 6 7 10 15 10 8 0 15 5 15 11 0 5 4 8 9 5
5 -3 12 1 15 10 3 8 10 13 15 10 5 -3 11 1 15 9 3 8 12 15 21 15 8 0 15 5 15
10 0 6 7 10 15 10 8 0 15 5 15 10 0 6 7 10 15 10 8 0 15 5 15 10 0 6 7 10 15
10 8 0 15 5 15 10 0 6 7 10 15 10 8 0 15 5 15 10 0 6 6 10 14 10 8 0 17 7 20
16 3 8 10 13 15 10 5 -3 11 1 15 9 3 8 12 15 21 15 8 0 15 5 15 10 0 6 6 10
14 10 8 0 16 7 20 15 3 8 12 15 20 15 7 0 17 7 20 16 3 8 10 12 16 9 5 -3 10
-1 10 5 0 6 4 9 9 5 5 -3 12 -1 16 5 4 6 10 8 15 5 5 -3 11 -1 15 4 3 6 12 8
19 5 8 -3 17 -1 20 4 7 12 137 4 154 -8 1 -2 7 -4 12 -5 6 -1 11 -3 13 -5 1
-1 11 -3 21 -5 10 -2 22 -8 25 -13 3 -4 14 -11 24 -15 9 -3 17 -13 17 -21 0
-9 9 -20 20 -26 11 -6 20 -17 20 -25 0 -7 5 -15 11 -17 31 -10 31 -256 -1
-266 -5 -2 -10 -8 -10 -13 0 -11 -101 -109 -112 -109 -4 0 -8 -4 -8 -10 0 -5
-6 -10 -14 -10 -8 0 -17 -7 -20 -16 -3 -8 -10 -12 -16 -9 -6 3 -13 -1 -16 -9
-3 -9 -10 -13 -15 -10 -5 3 -12 -2 -15 -10 -3 -9 -12 -16 -20 -16 -8 0 -14 -4
-14 -10 0 -5 -7 -10 -15 -10 -8 0 -15 -4 -15 -10 0 -5 -6 -10 -14 -10 -8 0
-17 -7 -20 -16 -3 -8 -10 -12 -16 -9 -6 3 -13 -1 -16 -9 -3 -9 -12 -16 -19
-16 -7 0 -16 -7 -19 -16 -3 -8 -10 -12 -16 -9 -6 3 -13 -1 -16 -9 -3 -9 -10
-13 -15 -10 -5 3 -12 -2 -15 -10 -3 -9 -10 -13 -15 -10 -5 3 -12 -2 -15 -10
-3 -9 -10 -13 -15 -10 -5 3 -12 -2 -15 -10 -3 -9 -10 -13 -15 -10 -5 3 -12 -2
-15 -10 -3 -9 -10 -13 -15 -10 -5 3 -12 -2 -15 -10 -3 -9 -10 -13 -15 -10 -5
3 -12 -2 -15 -10 -3 -9 -10 -13 -15 -10 -5 3 -12 -2 -15 -10 -3 -9 -10 -13
-15 -10 -5 3 -12 -2 -15 -10 -3 -9 -10 -13 -15 -10 -5 3 -12 -2 -15 -10 -3 -9
-10 -13 -15 -10 -5 3 -12 -2 -15 -10 -3 -9 -10 -13 -15 -10 -5 3 -12 -2 -15
-10 -3 -9 -12 -16 -20 -16 -8 0 -14 -4 -14 -10 0 -5 -7 -10 -15 -10 -8 0 -15
-4 -15 -10 0 -5 -7 -10 -15 -10 -8 0 -15 -4 -15 -10 0 -5 -7 -10 -15 -10 -8 0
-15 -4 -15 -10 0 -5 -6 -10 -14 -10 -8 0 -17 -7 -20 -16 -3 -8 -10 -12 -16 -9
-6 3 -13 -1 -16 -9 -3 -9 -12 -16 -20 -16 -8 0 -14 -4 -14 -10 0 -5 -6 -10
-14 -10 -8 0 -17 -7 -20 -16 -3 -8 -10 -13 -15 -9 -6 3 -15 -4 -21 -15 -6 -11
-17 -20 -25 -20 -8 0 -15 -5 -15 -11 0 -5 -4 -7 -10 -4 -5 3 -10 1 -10 -5 0
-6 -4 -8 -10 -5 -5 3 -10 1 -10 -4 0 -6 -7 -11 -15 -11 -8 0 -15 -4 -15 -10 0
-5 -7 -10 -15 -10 -8 0 -15 -4 -15 -10 0 -5 -7 -10 -15 -10 -9 0 -18 -7 -21
-15 -4 -8 -12 -15 -20 -15 -8 0 -14 -4 -14 -10 0 -5 -7 -10 -15 -10 -9 0 -18
-7 -21 -15 -4 -8 -10 -12 -15 -9 -5 3 -9 0 -9 -5 0 -6 -7 -11 -15 -11 -8 0
-15 -4 -15 -9 0 -5 -13 -14 -30 -20 -16 -5 -30 -16 -30 -23 0 -8 -16 -20 -35
-27 -19 -7 -35 -17 -35 -22 0 -5 -7 -9 -15 -9 -8 0 -15 -4 -15 -10 0 -5 -6
-10 -14 -10 -8 0 -16 -7 -20 -15 -3 -8 -12 -15 -20 -15 -9 0 -20 -9 -26 -20
-6 -11 -16 -20 -23 -20 -17 0 -60 -48 -75 -83 -17 -41 11 -96 61 -120 21 -10
43 -14 50 -10 7 4 14 8 17 9 27 6 70 28 70 35 0 5 7 9 15 9 8 0 15 5 15 11 0
5 4 8 9 5 5 -3 12 1 15 10 3 8 10 13 15 10 5 -3 11 1 15 9 3 8 12 15 21 15 8
0 15 5 15 10 0 6 7 10 15 10 8 0 15 5 15 10 0 6 6 10 14 10 8 0 16 7 20 15 3
8 12 15 21 15 8 0 15 5 15 10 0 6 7 10 15 10 8 0 15 5 15 10 0 6 7 10 15 10 8
0 15 5 15 10 0 6 7 10 15 10 8 0 15 5 15 10 0 6 7 10 15 10 8 0 15 5 15 10 0
6 7 10 15 10 8 0 15 5 15 10 0 6 7 10 15 10 8 0 15 5 15 10 0 6 7 10 15 10 8
0 15 5 15 10 0 6 7 10 15 10 8 0 15 5 15 10 0 6 7 10 15 10 8 0 15 5 15 10 0
6 6 10 14 10 8 0 17 7 20 16 3 8 10 12 16 9 6 -3 13 1 16 9 3 9 12 16 20 16 8
0 14 5 14 10 0 6 6 10 14 10 8 0 17 7 20 16 3 8 10 13 15 10 5 -3 12 1 15 10
3 8 10 12 16 9 6 -3 13 1 16 9 3 9 12 16 20 16 8 0 14 5 14 10 0 6 7 10 15 10
8 0 15 5 15 10 0 6 7 10 15 10 8 0 15 5 15 10 0 6 7 10 15 10 8 0 15 5 15 10
0 6 6 10 14 10 8 0 17 7 20 16 3 8 10 13 15 10 5 -3 12 1 15 10 3 8 10 13 15
10 5 -3 12 1 15 10 3 8 10 12 16 9 5 -3 10 -1 10 4 0 6 7 11 15 11 8 0 15 5
15 10 0 6 7 10 15 10 8 0 15 5 15 10 0 6 7 10 15 10 8 0 15 5 15 10 0 6 7 10
15 10 8 0 15 5 15 10 0 6 6 10 14 10 8 0 17 7 20 16 3 8 10 13 15 10 5 -3 12
1 15 10 3 8 10 13 15 10 5 -3 12 1 15 10 3 8 10 12 16 9 5 -3 10 -1 10 4 0 6
7 11 15 11 8 0 15 4 15 9 0 7 50 33 73 37 4 1 8 3 10 4 8 8 134 7 144 -2 7 -6
13 -8 13 -4 0 10 64 -25 77 -43 7 -9 13 -12 13 -7 0 15 60 -46 60 -61 0 -8 7
-16 15 -19 8 -4 12 -10 9 -15 -3 -5 -1 -9 3 -9 5 0 10 -9 12 -20 5 -37 5 -165
0 -185 -11 -38 -23 -60 -36 -68 -7 -4 -13 -14 -13 -21 0 -16 -54 -68 -62 -60
-4 3 -11 -4 -18 -15 -6 -12 -17 -21 -25 -21 -8 0 -15 -4 -15 -10 0 -5 -7 -10
-15 -10 -8 0 -15 -4 -15 -9 0 -5 -11 -12 -25 -15 -14 -4 -25 -11 -25 -16 0 -6
-7 -10 -15 -10 -8 0 -15 -4 -15 -10 0 -5 -7 -10 -15 -10 -9 0 -18 -7 -21 -15
-4 -8 -12 -15 -20 -15 -8 0 -14 -4 -14 -10 0 -5 -7 -10 -15 -10 -8 0 -15 -4
-15 -10 0 -5 -7 -10 -15 -10 -8 0 -15 -4 -15 -10 0 -5 -7 -10 -15 -10 -8 0
-15 -4 -15 -10 0 -5 -7 -10 -15 -10 -8 0 -15 -4 -15 -10 0 -5 -7 -10 -15 -10
-8 0 -15 -4 -15 -10 0 -5 -7 -10 -15 -10 -9 0 -18 -7 -21 -15 -4 -8 -10 -12
-15 -9 -5 3 -12 -2 -15 -10 -3 -9 -12 -16 -20 -16 -8 0 -14 -4 -14 -10 0 -5
-7 -10 -15 -10 -8 0 -15 -4 -15 -10 0 -5 -7 -10 -15 -10 -8 0 -15 -4 -15 -10
0 -5 -6 -10 -14 -10 -8 0 -17 -7 -20 -16 -3 -8 -10 -12 -16 -9 -6 3 -13 -1
-16 -9 -3 -9 -10 -13 -15 -10 -5 3 -12 -2 -15 -10 -3 -9 -12 -16 -20 -16 -8 0
-14 -4 -14 -10 0 -5 -7 -10 -15 -10 -8 0 -15 -4 -15 -10 0 -5 -7 -10 -15 -10
-8 0 -15 -4 -15 -10 0 -5 -7 -10 -15 -10 -8 0 -15 -4 -15 -10 0 -5 -7 -10 -15
-10 -9 0 -18 -7 -21 -15 -4 -8 -10 -12 -15 -9 -5 3 -12 -2 -15 -10 -3 -9 -10
-13 -15 -10 -5 3 -12 -2 -15 -10 -3 -9 -12 -16 -20 -16 -8 0 -14 -4 -14 -10 0
-5 -7 -10 -15 -10 -8 0 -15 -4 -15 -10 0 -5 -7 -10 -15 -10 -8 0 -15 -4 -15
-10 0 -5 -7 -10 -15 -10 -8 0 -15 -4 -15 -10 0 -5 -7 -10 -15 -10 -9 0 -18 -7
-21 -15 -4 -8 -10 -12 -15 -9 -5 3 -12 -2 -15 -10 -3 -9 -10 -13 -15 -10 -5 3
-12 -2 -15 -10 -3 -9 -12 -16 -20 -16 -8 0 -14 -4 -14 -10 0 -5 -7 -10 -15
-10 -8 0 -15 -4 -15 -10 0 -5 -7 -10 -15 -10 -8 0 -15 -4 -15 -10 0 -5 -7 -10
-15 -10 -8 0 -15 -4 -15 -10 0 -5 -7 -10 -15 -10 -9 0 -18 -7 -21 -15 -4 -8
-10 -12 -15 -9 -5 3 -12 -2 -15 -10 -3 -9 -12 -16 -20 -16 -8 0 -14 -4 -14
-10 0 -5 -7 -10 -15 -10 -9 0 -18 -7 -21 -15 -4 -8 -10 -12 -15 -9 -5 3 -12
-2 -15 -10 -3 -9 -10 -13 -15 -10 -5 3 -12 -2 -15 -10 -3 -9 -12 -16 -20 -16
-8 0 -14 -4 -14 -10 0 -5 -7 -10 -15 -10 -8 0 -15 -4 -15 -10 0 -5 -7 -10 -15
-10 -8 0 -15 -4 -15 -10 0 -5 -7 -10 -15 -10 -8 0 -15 -4 -15 -10 0 -5 -7 -10
-15 -10 -8 0 -15 -4 -15 -10 0 -5 -7 -10 -15 -10 -8 0 -15 -4 -15 -10 0 -5 -7
-10 -15 -10 -8 0 -15 -4 -15 -10 0 -5 -6 -10 -14 -10 -8 0 -16 -7 -20 -15 -3
-8 -12 -15 -20 -15 -7 0 -17 -7 -20 -16 -3 -8 -10 -12 -16 -9 -6 3 -13 -1 -16
-9 -3 -9 -13 -16 -20 -16 -8 0 -17 -7 -20 -15 -4 -8 -9 -13 -14 -10 -4 2 -16
-4 -27 -15 -12 -10 -24 -16 -27 -13 -3 4 -6 1 -6 -6 0 -7 -4 -9 -10 -6 -5 3
-10 1 -10 -4 0 -6 -7 -11 -15 -11 -8 0 -15 -5 -15 -10 0 -6 -8 -14 -17 -17
-20 -8 -88 -73 -76 -73 4 0 2 -4 -6 -9 -21 -13 5 -35 44 -38 76 -5 304 -15
440 -19 152 -4 228 -9 255 -17 40 -11 120 -51 120 -58 0 -5 4 -9 10 -9 26 0
119 -114 124 -152 1 -3 4 -9 8 -13 4 -4 4 -13 2 -20 -3 -7 -1 -15 3 -18 11 -7
4 -171 -7 -184 -2 -2 -3 -6 -5 -10 -10 -36 -31 -68 -75 -112 -28 -28 -55 -51
-59 -51 -4 0 -18 -9 -31 -20 -12 -11 -27 -17 -31 -14 -5 3 -9 0 -9 -6 0 -6 -4
-8 -10 -5 -5 3 -15 3 -22 -1 -19 -12 -48 -13 -903 -29 -370 -7 -1081 -7 -1140
0 -46 5 -80 10 -145 19 -14 2 -27 5 -30 6 -3 2 -9 4 -15 4 -5 1 -20 7 -32 14
-13 7 -23 10 -23 6 0 -3 -7 -1 -15 6 -8 7 -15 9 -15 5 0 -4 -7 -2 -15 5 -9 7
-18 10 -22 7 -3 -4 -12 -2 -20 5 -7 6 -16 8 -20 5 -3 -4 -18 2 -33 13 -15 11
-30 17 -34 13 -3 -3 -6 -1 -6 6 0 7 -4 10 -9 6 -5 -3 -12 -1 -16 5 -4 6 -11 8
-16 5 -5 -4 -9 -1 -9 4 0 6 -3 10 -7 10 -17 -3 -32 2 -45 14 -38 34 -90 48
-103 27 -4 -6 -10 -8 -15 -5 -5 3 -15 -1 -23 -9 -8 -8 -17 -12 -21 -9 -3 3 -8
-2 -12 -11 -3 -9 -12 -16 -20 -16 -7 0 -18 -9 -24 -20 -6 -11 -15 -18 -21 -15
-5 4 -12 -1 -15 -9 -3 -9 -12 -16 -20 -16 -8 0 -14 -5 -14 -11 0 -5 -4 -7 -10
-4 -5 3 -10 1 -10 -4 0 -6 -7 -11 -15 -11 -8 0 -15 -4 -15 -10 0 -5 -7 -10
-15 -10 -8 0 -15 -4 -15 -10 0 -5 -7 -10 -15 -10 -8 0 -15 -4 -15 -10 0 -5 -7
-10 -15 -10 -9 0 -18 -7 -21 -15 -4 -8 -10 -12 -15 -9 -5 3 -12 -2 -15 -10 -3
-9 -12 -16 -20 -16 -8 0 -14 -4 -14 -10 0 -5 -7 -10 -15 -10 -8 0 -15 -4 -15
-10 0 -5 -7 -10 -15 -10 -8 0 -15 -4 -15 -10 0 -5 -7 -10 -15 -10 -8 0 -15 -4
-15 -10 0 -5 -7 -10 -15 -10 -8 0 -15 -5 -15 -11 0 -5 -5 -7 -10 -4 -6 3 -13
-1 -16 -9 -3 -9 -12 -16 -20 -16 -8 0 -14 -4 -14 -10 0 -5 -6 -10 -14 -10 -8
0 -17 -7 -20 -16 -3 -8 -10 -13 -14 -10 -5 3 -19 -8 -31 -25 -12 -16 -26 -27
-32 -24 -5 4 -9 1 -9 -5 0 -6 -4 -8 -10 -5 -5 3 -10 1 -10 -5 0 -6 -4 -8 -10
-5 -5 3 -10 1 -10 -4 0 -6 -7 -11 -15 -11 -8 0 -15 -4 -15 -10 0 -5 -7 -10
-15 -10 -8 0 -15 -4 -15 -10 0 -5 -7 -10 -15 -10 -8 0 -15 -4 -15 -10 0 -5 -6
-10 -14 -10 -8 0 -17 -7 -20 -16 -3 -8 -10 -12 -16 -9 -6 3 -13 -1 -16 -9 -3
-9 -12 -16 -20 -16 -8 0 -14 -4 -14 -10 0 -5 -6 -10 -14 -10 -8 0 -17 -7 -20
-16 -3 -8 -10 -12 -16 -9 -6 3 -13 -1 -16 -9 -3 -9 -12 -16 -20 -16 -8 0 -14
-5 -14 -11 0 -5 -4 -7 -10 -4 -5 3 -10 1 -10 -4 0 -6 -3 -10 -7 -10 -5 1 -11
1 -15 0 -5 -1 -58 -2 -119 -2 -110 0 -139 7 -139 37 0 7 -16 25 -35 40 -19 14
-32 30 -29 35 3 5 -1 12 -9 15 -9 3 -18 16 -21 30 -4 13 -11 24 -16 24 -6 0
-10 7 -10 15 0 8 -5 15 -11 15 -5 0 -7 5 -4 10 3 6 -1 13 -9 16 -9 3 -16 12
-16 20 0 8 -4 14 -10 14 -5 0 -10 7 -10 15 0 8 -4 15 -10 15 -5 0 -10 7 -10
15 0 8 -4 15 -10 15 -5 0 -10 7 -10 15 0 9 -7 18 -15 21 -8 4 -12 10 -9 15 3
5 -2 12 -10 15 -9 3 -13 10 -10 15 3 5 -2 12 -10 15 -9 3 -13 10 -10 15 3 5
-2 12 -10 15 -9 3 -13 10 -10 15 3 5 -2 12 -10 15 -9 3 -13 10 -10 15 3 5 -2
12 -10 15 -9 3 -13 10 -10 15 3 5 -2 12 -10 15 -9 3 -16 12 -16 20 0 8 -4 14
-10 14 -5 0 -10 7 -10 15 0 9 -7 18 -15 21 -8 4 -15 12 -15 20 0 8 -4 14 -10
14 -5 0 -10 7 -10 15 0 8 -4 15 -10 15 -5 0 -10 7 -10 15 0 8 -4 15 -10 15 -5
0 -10 7 -10 15 0 8 -4 15 -10 15 -5 0 -10 6 -10 14 0 8 -7 17 -16 20 -8 3 -12
10 -9 16 3 6 -1 13 -9 16 -9 3 -16 12 -16 19 0 7 -7 16 -16 19 -8 3 -12 10 -9
16 3 6 -1 13 -9 16 -9 3 -13 10 -10 15 3 5 0 9 -5 9 -6 0 -11 7 -11 15 0 8 -4
15 -10 15 -5 0 -10 7 -10 15 0 8 -4 15 -10 15 -5 0 -10 7 -10 15 0 8 -4 15
-10 15 -5 0 -10 7 -10 15 0 8 -9 20 -20 27 -11 7 -20 18 -20 25 0 7 -4 13 -8
13 -12 0 -43 79 -43 110 0 8 -5 38 -11 67 -8 39 -8 59 1 81 14 33 101 129 114
124 4 -1 10 5 13 13 4 8 12 15 19 15 7 0 15 7 19 15 3 8 12 15 21 15 8 0 15 5
15 10 0 6 7 10 15 10 8 0 15 5 15 10 0 6 7 10 15 10 8 0 15 5 15 10 0 6 7 10
15 10 8 0 15 5 15 10 0 6 7 10 15 10 8 0 15 5 15 10 0 6 7 10 15 10 8 0 15 5
15 10 0 6 7 10 15 10 8 0 15 5 15 10 0 6 6 10 14 10 8 0 17 7 20 16 3 8 10 13
15 10 5 -3 11 1 15 9 3 8 12 15 21 15 8 0 15 5 15 10 0 6 7 10 15 10 8 0 15 5
15 10 0 6 6 10 14 10 8 0 17 7 20 16 3 8 10 13 15 10 5 -3 11 1 15 9 3 8 12
15 21 15 8 0 15 5 15 10 0 6 7 10 15 10 8 0 15 5 15 10 0 6 6 10 14 10 8 0 17
7 20 16 3 8 10 12 16 9 6 -3 13 1 16 9 3 9 12 16 20 16 8 0 14 5 14 10 0 6 7
10 15 10 8 0 15 5 15 10 0 6 6 10 14 10 8 0 17 7 20 16 3 8 10 13 15 10 5 -3
12 1 15 10 3 8 10 12 16 9 6 -3 13 1 16 9 3 9 12 16 20 16 8 0 14 5 14 10 0 6
7 10 15 10 8 0 15 5 15 11 0 5 4 8 9 5 5 -3 12 1 15 10 3 8 10 13 15 10 5 -3
12 1 15 10 3 8 10 13 15 10 5 -3 11 1 15 9 3 8 12 15 21 15 8 0 15 5 15 10 0
6 7 10 15 10 8 0 19 9 25 20 6 11 17 20 24 20 19 0 31 43 41 150 11 114 18
166 30 235 4 17 6 37 7 45 0 8 5 21 11 28 5 6 6 12 2 12 -4 0 -2 7 5 15 7 9
10 18 7 22 -4 3 -2 12 4 20 6 7 8 13 4 13 -4 0 -2 7 5 15 7 8 9 15 6 15 -4 0
-1 10 6 23 7 12 12 24 13 27 1 11 71 145 83 158 6 7 12 20 12 28 0 8 5 14 10
14 6 0 10 6 10 14 0 8 7 17 16 20 8 3 12 10 9 16 -3 6 1 13 9 16 9 3 16 12 16
19 0 7 11 20 25 29 14 9 25 21 25 26 0 14 155 170 168 170 6 0 23 16 38 35 14
19 32 35 39 35 7 0 16 7 19 16 3 8 10 12 16 9 6 -3 13 1 16 9 3 9 12 16 20 16
8 0 14 5 14 10 0 6 7 10 15 10 8 0 15 5 15 10 0 6 7 10 15 10 8 0 15 5 15 10
0 6 6 10 14 10 8 0 17 7 20 16 3 8 10 12 16 9 5 -3 10 -1 10 4 0 6 7 11 15 11
8 0 15 5 15 10 0 6 7 10 15 10 8 0 15 5 15 10 0 6 6 10 14 10 8 0 16 7 20 15
3 8 12 15 21 15 8 0 15 5 15 10 0 6 6 10 13 10 8 0 26 14 40 30 15 17 34 30
42 30 8 0 15 5 15 11 0 5 5 7 10 4 6 -3 10 -1 10 4 0 6 7 11 15 11 8 0 15 5
15 10 0 6 7 10 15 10 8 0 15 5 15 10 0 6 7 10 15 10 8 0 15 5 15 10 0 6 7 10
15 10 8 0 15 5 15 10 0 6 7 10 15 10 8 0 15 5 15 10 0 6 6 10 14 10 8 0 17 7
20 16 3 8 10 13 15 10 5 -3 11 1 15 9 3 8 12 15 21 15 8 0 15 5 15 10 0 6 7
10 15 10 8 0 15 5 15 10 0 6 6 10 14 10 8 0 17 7 20 16 3 8 10 13 15 10 5 -3
12 1 15 10 3 8 10 13 15 10 5 -3 11 1 15 9 3 8 12 15 21 15 8 0 15 5 15 10 0
6 7 10 15 10 8 0 15 5 15 10 0 6 7 10 15 10 8 0 15 5 15 10 0 6 6 10 14 10 8
0 17 7 20 16 3 8 10 13 15 10 5 -3 11 1 15 9 3 8 12 15 21 15 8 0 15 5 15 10
0 6 7 10 15 10 8 0 15 5 15 10 0 6 7 10 15 10 8 0 15 5 15 10 0 6 6 10 14 10
8 0 17 7 20 16 3 8 10 13 15 10 5 -3 12 1 15 10 3 8 10 12 16 9 6 -3 13 1 16
9 3 9 12 16 20 16 8 0 14 5 14 10 0 6 7 10 15 10 8 0 15 5 15 10 0 6 7 10 15
10 8 0 15 5 15 10 0 6 6 10 14 10 8 0 17 7 20 16 3 8 10 12 16 9 6 -3 13 1 16
9 3 9 12 16 20 16 8 0 14 5 14 10 0 6 7 10 15 10 8 0 15 5 15 10 0 6 7 10 15
10 8 0 15 5 15 10 0 6 7 10 15 10 8 0 15 5 15 10 0 6 7 10 15 10 8 0 15 5 15
10 0 6 7 10 15 10 8 0 15 5 15 10 0 6 7 10 15 10 8 0 15 5 15 10 0 6 7 10 15
10 8 0 15 5 15 10 0 6 6 10 14 10 8 0 17 7 20 16 3 8 10 13 15 10 5 -3 12 1
15 10 3 8 10 12 16 9 6 -3 13 1 16 9 3 9 12 16 20 16 8 0 14 5 14 10 0 6 7 10
15 10 8 0 15 5 15 10 0 6 6 10 14 10 8 0 17 7 20 16 3 8 10 13 15 10 5 -3 11
1 15 9 3 8 12 15 21 15 8 0 15 5 15 10 0 6 7 10 15 10 8 0 15 5 15 10 0 6 7
10 15 10 9 0 18 7 21 15 4 8 12 15 20 15 8 0 14 5 14 10 0 6 7 10 15 10 8 0
15 5 15 11 0 5 5 7 10 4 6 -3 10 -1 10 4 0 6 7 11 15 11 8 0 15 5 15 10 0 6 7
10 15 10 8 0 15 5 15 10 0 6 7 10 15 10 8 0 19 9 25 20 6 11 15 18 20 15 5 -3
14 4 20 15 6 11 15 18 21 15 5 -4 12 1 15 9 3 9 12 16 20 16 8 0 14 5 14 10 0
6 7 10 15 10 8 0 15 4 15 9 0 10 39 27 53 23 4 -1 7 3 7 8 0 6 3 9 8 8 4 -1
17 3 30 10 12 7 22 11 22 8 0 -3 12 2 28 10 24 13 55 13 102 0z m5958 -1155
c1 -1 5 -1 10 -2 4 0 12 -5 19 -11 7 -5 17 -7 22 -4 5 4 12 2 16 -4 4 -6 11
-8 16 -5 5 4 9 1 9 -5 0 -7 7 -10 15 -6 8 3 15 1 15 -5 0 -6 5 -7 10 -4 6 3
10 1 10 -4 0 -6 3 -10 8 -9 12 4 72 -24 72 -34 0 -5 4 -7 9 -4 5 3 12 -1 15
-10 3 -8 10 -13 15 -9 6 3 18 -6 27 -20 9 -14 22 -25 29 -25 7 0 20 -11 29
-25 9 -14 21 -23 26 -20 5 3 14 -4 20 -15 6 -11 17 -20 25 -20 8 0 19 -9 25
-20 6 -11 15 -18 19 -15 5 2 16 -7 25 -20 9 -14 21 -23 25 -20 5 2 16 -7 25
-20 9 -14 21 -23 25 -20 5 2 16 -7 25 -20 9 -14 21 -23 25 -20 5 2 16 -7 25
-20 9 -14 21 -23 26 -20 5 3 14 -4 20 -15 6 -11 17 -20 24 -20 8 0 21 -11 30
-25 9 -14 20 -24 24 -23 8 3 128 -108 171 -157 14 -16 47 -50 74 -75 26 -25
47 -51 47 -57 0 -7 11 -20 25 -29 14 -9 23 -20 20 -24 -3 -4 7 -15 20 -24 14
-9 23 -21 20 -26 -4 -6 -1 -10 4 -10 6 0 11 -7 11 -15 0 -8 5 -15 11 -15 5 0
7 -4 4 -10 -3 -5 -1 -10 4 -10 6 0 11 -7 11 -15 0 -8 5 -15 11 -15 5 0 8 -4 4
-9 -3 -5 -1 -12 5 -16 6 -4 8 -11 5 -16 -4 -5 -1 -9 5 -9 6 0 9 -4 5 -9 -3 -5
-1 -12 4 -16 6 -3 8 -12 5 -19 -3 -8 0 -17 5 -21 6 -3 9 -11 6 -16 -4 -5 -3
-15 2 -21 4 -7 8 -16 9 -20 1 -5 2 -9 4 -10 7 -10 20 -96 25 -178 6 -83 9
-102 20 -120 5 -8 10 -19 10 -25 1 -5 6 -9 13 -7 7 1 12 -3 12 -9 0 -5 5 -7
10 -4 6 3 10 1 10 -4 0 -6 3 -10 8 -10 13 3 72 -25 72 -34 0 -4 5 -5 10 -2 6
3 10 1 10 -5 0 -6 5 -8 10 -5 6 3 10 1 10 -5 0 -6 5 -8 10 -5 6 3 10 1 10 -5
0 -6 5 -8 10 -5 6 3 10 1 10 -5 0 -6 5 -8 10 -5 6 3 10 2 10 -3 0 -6 11 -13
25 -16 14 -4 25 -11 25 -17 0 -6 5 -7 10 -4 6 3 10 1 10 -5 0 -6 5 -8 10 -5 6
3 10 1 10 -5 0 -6 5 -8 10 -5 6 3 10 1 10 -5 0 -6 5 -8 10 -5 6 3 10 1 10 -5
0 -6 5 -8 10 -5 6 3 10 1 10 -5 0 -6 5 -8 10 -5 6 3 10 1 10 -5 0 -6 5 -8 10
-5 6 3 10 1 10 -5 0 -6 5 -8 10 -5 6 3 10 1 10 -5 0 -6 5 -8 10 -5 6 3 10 1
10 -5 0 -6 5 -8 10 -5 6 3 10 1 10 -5 0 -6 5 -8 10 -5 6 3 10 1 10 -5 0 -6 5
-8 10 -5 6 3 10 1 10 -5 0 -6 5 -8 10 -5 6 3 10 1 10 -5 0 -6 5 -8 10 -5 6 3
10 1 10 -5 0 -6 5 -8 10 -5 6 3 10 1 10 -5 0 -6 5 -8 10 -5 6 3 10 1 10 -5 0
-6 5 -8 10 -5 6 3 10 1 10 -5 0 -6 5 -8 10 -5 6 3 10 1 10 -5 0 -6 5 -8 10 -5
6 3 10 1 10 -5 0 -6 5 -8 10 -5 6 3 10 1 10 -5 0 -6 5 -8 10 -5 6 3 10 1 10
-5 0 -6 5 -8 10 -5 6 3 10 1 10 -5 0 -6 5 -8 10 -5 6 3 10 1 10 -5 0 -6 5 -8
10 -5 6 3 10 1 10 -5 0 -6 5 -8 10 -5 6 3 10 1 10 -5 0 -6 5 -8 10 -5 6 3 10
1 10 -5 0 -6 5 -8 10 -5 6 3 10 1 10 -5 0 -6 5 -8 10 -5 6 3 10 1 10 -5 0 -6
5 -8 10 -5 6 3 10 1 10 -5 0 -6 5 -8 10 -5 6 3 10 1 10 -5 0 -6 5 -8 10 -5 6
3 10 2 10 -4 0 -6 11 -13 25 -17 14 -3 25 -10 25 -16 0 -5 5 -6 10 -3 6 3 10
1 10 -5 0 -6 5 -8 10 -5 6 3 10 1 10 -5 0 -6 5 -8 10 -5 6 3 10 1 10 -5 0 -6
5 -8 10 -5 6 3 10 1 10 -4 0 -6 7 -11 15 -11 8 0 15 -5 15 -11 0 -5 5 -7 10
-4 6 3 10 1 10 -5 0 -6 5 -8 10 -5 6 3 10 2 10 -2 0 -5 10 -13 22 -18 12 -6
26 -19 32 -30 6 -10 17 -25 24 -33 11 -13 16 -28 13 -44 0 -5 3 -8 8 -8 11 0
10 -112 -2 -127 -5 -7 -6 -13 -2 -13 4 0 2 -7 -5 -15 -7 -8 -9 -15 -5 -15 4 0
2 -6 -4 -13 -6 -8 -8 -17 -4 -20 3 -4 1 -7 -6 -7 -7 0 -9 -4 -6 -10 3 -5 1
-10 -6 -10 -7 0 -9 -3 -6 -6 3 -4 1 -16 -5 -28 -7 -11 -11 -24 -10 -28 1 -5
-3 -8 -9 -8 -5 0 -7 -4 -4 -10 3 -5 1 -10 -5 -10 -6 0 -8 -4 -5 -10 3 -5 1
-10 -6 -10 -7 0 -9 -3 -6 -7 4 -3 -7 -29 -23 -58 -16 -29 -27 -55 -23 -58 3
-4 1 -7 -6 -7 -7 0 -9 -4 -6 -10 3 -5 1 -10 -5 -10 -6 0 -8 -4 -5 -10 3 -5 1
-10 -5 -10 -6 0 -8 -4 -5 -10 3 -5 1 -10 -5 -10 -6 0 -8 -4 -5 -10 3 -5 1 -10
-5 -10 -6 0 -8 -4 -5 -10 3 -5 1 -10 -5 -10 -6 0 -8 -4 -5 -10 3 -5 1 -10 -5
-10 -6 0 -8 -4 -5 -10 3 -5 1 -10 -5 -10 -6 0 -8 -4 -5 -10 3 -5 1 -10 -5 -10
-6 0 -8 -4 -5 -10 3 -6 2 -10 -3 -10 -5 0 -22 -29 -37 -65 -16 -36 -32 -65
-37 -65 -5 0 -6 -4 -3 -10 3 -5 1 -10 -5 -10 -6 0 -8 -4 -5 -10 3 -5 1 -10 -5
-10 -6 0 -8 -4 -5 -10 3 -5 1 -10 -5 -10 -6 0 -8 -4 -5 -10 3 -5 1 -10 -5 -10
-6 0 -8 -4 -5 -10 3 -5 1 -10 -5 -10 -6 0 -8 -4 -5 -10 3 -5 1 -10 -5 -10 -6
0 -8 -4 -5 -10 3 -5 1 -10 -5 -10 -6 0 -8 -5 -5 -10 3 -5 1 -10 -5 -10 -6 0
-8 -4 -5 -10 3 -5 1 -10 -5 -10 -6 0 -8 -4 -5 -10 3 -5 1 -10 -5 -10 -6 0 -8
-4 -5 -10 3 -5 1 -10 -5 -10 -6 0 -8 -4 -5 -10 3 -5 1 -10 -5 -10 -6 0 -8 -4
-5 -10 3 -5 1 -10 -5 -10 -6 0 -8 -5 -5 -10 3 -6 1 -10 -5 -10 -6 0 -8 -4 -5
-10 3 -5 1 -10 -5 -10 -6 0 -8 -5 -5 -10 3 -6 1 -10 -5 -10 -6 0 -8 -4 -5 -10
3 -5 1 -10 -5 -10 -6 0 -8 -5 -5 -10 3 -5 2 -10 -3 -10 -6 0 -13 -11 -16 -25
-4 -14 -11 -25 -17 -25 -6 0 -7 -4 -4 -10 3 -5 1 -10 -5 -10 -6 0 -8 -4 -5
-10 3 -5 1 -10 -4 -10 -6 0 -11 -7 -11 -15 0 -8 -5 -15 -11 -15 -5 0 -7 -4 -4
-10 3 -5 1 -10 -5 -10 -6 0 -8 -4 -5 -10 3 -5 1 -10 -5 -10 -6 0 -9 -4 -6 -9
3 -5 -1 -11 -9 -15 -8 -3 -15 -12 -15 -21 0 -8 -4 -15 -10 -15 -5 0 -10 -7
-10 -15 0 -8 -7 -15 -15 -15 -7 0 -18 -7 -23 -16 -5 -8 -17 -17 -28 -19 -10
-2 -20 -4 -21 -5 -2 -2 -7 -4 -13 -5 -5 -1 -13 -4 -17 -5 -23 -7 -121 -5 -138
4 -11 6 -23 9 -27 8 -5 -1 -8 3 -8 9 0 5 -4 7 -10 4 -5 -3 -10 -1 -10 5 0 6
-4 8 -10 5 -5 -3 -10 -1 -10 5 0 6 -4 9 -9 5 -5 -3 -12 -1 -16 5 -4 6 -11 8
-16 5 -5 -4 -9 -1 -9 5 0 6 -4 8 -10 5 -5 -3 -10 -1 -10 5 0 6 -4 8 -10 5 -5
-3 -10 -1 -10 5 0 6 -4 8 -10 5 -5 -3 -10 -1 -10 5 0 6 -4 8 -10 5 -5 -3 -10
-1 -10 5 0 6 -4 8 -10 5 -5 -3 -10 -1 -10 5 0 6 -4 8 -10 5 -5 -3 -10 -1 -10
5 0 6 -4 8 -10 5 -5 -3 -10 -1 -10 5 0 6 -4 8 -10 5 -5 -3 -10 -1 -10 5 0 6
-4 8 -10 5 -5 -3 -10 -1 -10 5 0 6 -4 8 -10 5 -5 -3 -10 -1 -10 5 0 6 -4 8
-10 5 -5 -3 -10 -1 -10 5 0 6 -4 8 -10 5 -5 -3 -10 -1 -10 5 0 6 -4 8 -10 5
-5 -3 -10 -1 -10 5 0 6 -4 8 -10 5 -5 -3 -10 -1 -10 5 0 6 -4 8 -10 5 -5 -3
-10 -1 -10 5 0 6 -4 8 -10 5 -5 -3 -10 -1 -10 5 0 6 -4 8 -10 5 -5 -3 -10 -1
-10 5 0 6 -4 8 -10 5 -5 -3 -10 -1 -10 5 0 6 -4 8 -10 5 -5 -3 -10 -1 -10 5 0
6 -4 8 -10 5 -5 -3 -10 -1 -10 5 0 6 -4 8 -10 5 -5 -3 -10 -1 -10 5 0 6 -4 8
-10 5 -5 -3 -10 -1 -10 5 0 6 -4 8 -10 5 -5 -3 -10 -1 -10 5 0 6 -4 8 -10 5
-5 -3 -10 -1 -10 5 0 6 -4 8 -10 5 -5 -3 -10 -1 -10 5 0 6 -4 8 -10 5 -5 -3
-10 -1 -10 5 0 6 -4 8 -10 5 -5 -3 -10 -1 -10 5 0 6 -4 8 -10 5 -5 -3 -10 -1
-10 5 0 6 -4 8 -10 5 -5 -3 -10 -1 -10 5 0 6 -4 8 -10 5 -5 -3 -10 -1 -10 5 0
6 -4 8 -10 5 -5 -3 -10 -1 -10 5 0 6 -4 8 -10 5 -5 -3 -10 -1 -10 5 0 6 -4 8
-10 5 -5 -3 -10 -1 -10 5 0 6 -4 8 -10 5 -5 -3 -10 -1 -10 5 0 6 -4 8 -10 5
-5 -3 -10 -2 -10 4 0 5 -16 15 -35 21 -19 6 -35 16 -35 21 0 6 -4 7 -10 4 -5
-3 -10 -1 -10 5 0 6 -4 8 -10 5 -5 -3 -10 -1 -10 5 0 6 -4 8 -10 5 -5 -3 -10
-1 -10 5 0 6 -4 8 -10 5 -5 -3 -10 -1 -10 5 0 6 -4 8 -10 5 -5 -3 -10 -1 -10
5 0 6 -4 8 -10 5 -5 -3 -10 -1 -10 5 0 6 -4 8 -10 5 -5 -3 -10 -1 -10 5 0 6
-4 8 -10 5 -5 -3 -10 -1 -10 5 0 6 -4 8 -10 5 -5 -3 -10 -1 -10 5 0 6 -4 8
-10 5 -5 -3 -10 -1 -10 5 0 6 -4 8 -10 5 -5 -3 -10 -1 -10 5 0 6 -4 8 -10 5
-5 -3 -10 -1 -10 6 0 7 -3 9 -7 6 -3 -4 -12 -2 -20 4 -7 6 -13 8 -13 5 0 -4
-9 -2 -19 4 -14 7 -22 7 -26 -1 -4 -6 -13 -8 -21 -5 -8 3 -14 1 -14 -5 0 -6
-4 -7 -10 -4 -5 3 -10 1 -10 -5 0 -6 -4 -8 -10 -5 -5 3 -10 1 -10 -5 0 -6 -4
-8 -10 -5 -5 3 -10 1 -10 -5 0 -6 -4 -8 -10 -5 -5 3 -10 2 -10 -2 0 -9 -59
-37 -72 -34 -5 0 -8 -4 -8 -10 0 -5 -4 -7 -10 -4 -5 3 -10 1 -10 -5 0 -6 -4
-9 -9 -5 -5 3 -12 1 -16 -5 -4 -6 -11 -8 -16 -5 -5 4 -9 1 -9 -5 0 -6 -4 -9
-9 -5 -5 3 -12 1 -16 -5 -4 -6 -11 -8 -16 -5 -5 4 -15 3 -21 -2 -7 -4 -16 -8
-20 -9 -5 -1 -9 -2 -10 -4 -2 -1 -14 -4 -28 -6 -14 -2 -37 -6 -52 -9 -39 -7
-83 -14 -120 -20 -44 -7 -223 -7 -273 -1 -48 6 -90 13 -127 21 -70 14 -84 16
-100 16 -10 0 -20 5 -23 10 -4 5 -11 7 -16 3 -5 -3 -16 0 -24 6 -8 7 -15 9
-15 5 0 -4 -7 -2 -15 5 -8 7 -15 9 -15 4 0 -4 -5 -3 -11 3 -6 6 -18 9 -25 6
-8 -3 -14 0 -14 7 0 6 -4 9 -9 5 -5 -3 -12 -1 -16 5 -4 6 -11 8 -16 5 -5 -4
-9 -1 -9 5 0 6 -4 8 -10 5 -5 -3 -10 -1 -10 5 0 6 -4 9 -9 5 -5 -3 -12 -1 -16
5 -4 6 -11 8 -16 5 -5 -4 -9 -1 -9 5 0 6 -4 8 -10 5 -5 -3 -10 -1 -10 5 0 6
-4 9 -9 5 -5 -3 -12 -1 -16 5 -4 6 -11 8 -16 5 -5 -4 -9 -1 -9 5 0 6 -4 8 -10
5 -5 -3 -10 -1 -10 5 0 6 -4 8 -10 5 -5 -3 -10 -1 -10 5 0 6 -4 8 -10 5 -5 -3
-10 -2 -10 3 0 6 -11 13 -25 16 -14 4 -25 11 -25 17 0 6 -4 7 -10 4 -5 -3 -10
-1 -10 5 0 6 -4 8 -10 5 -5 -3 -10 -1 -10 5 0 6 -4 8 -10 5 -5 -3 -10 -1 -10
5 0 6 -4 8 -10 5 -5 -3 -10 -1 -10 5 0 6 -4 8 -10 5 -5 -3 -10 -1 -10 5 0 6
-4 8 -10 5 -5 -3 -10 -1 -10 5 0 6 -4 8 -10 5 -5 -3 -10 -1 -10 5 0 6 -4 8
-10 5 -5 -3 -10 -1 -10 5 0 6 -4 8 -10 5 -5 -3 -10 -1 -10 5 0 6 -4 8 -10 5
-5 -3 -10 -1 -10 5 0 6 -4 8 -10 5 -5 -3 -10 -1 -10 5 0 6 -4 8 -10 5 -5 -3
-10 -1 -10 5 0 6 -4 8 -10 5 -5 -3 -10 -1 -10 5 0 6 -4 8 -10 5 -5 -3 -10 -1
-10 5 0 6 -4 8 -10 5 -5 -3 -10 -1 -10 5 0 6 -4 8 -10 5 -5 -3 -10 -2 -10 3 0
10 -100 58 -112 54 -4 -1 -8 3 -8 9 0 5 -4 7 -10 4 -5 -3 -10 -1 -10 5 0 6 -4
9 -9 6 -8 -5 -21 15 -21 33 0 12 214 3 325 -13 17 -3 50 -8 75 -11 25 -3 59
-8 75 -11 68 -10 173 -22 250 -29 22 -2 67 -7 100 -11 102 -12 204 -8 233 10
6 4 16 5 21 1 5 -3 12 -1 16 5 4 6 10 8 15 5 5 -3 11 -1 15 5 4 6 11 8 16 5 5
-4 9 -1 9 6 0 7 3 10 6 7 3 -3 15 3 27 13 12 11 41 36 64 55 24 20 40 40 38
45 -3 4 4 13 15 19 11 6 18 15 15 21 -4 5 -2 9 4 9 5 0 13 10 17 23 4 12 10
29 13 37 7 23 6 242 -2 270 -4 14 -11 26 -17 28 -6 2 -8 8 -4 13 3 5 0 9 -6 9
-6 0 -9 4 -5 9 3 6 -4 15 -15 21 -11 6 -19 14 -17 18 2 8 -32 48 -82 93 -12
10 -21 16 -21 13 0 -3 -7 2 -16 10 -8 9 -19 14 -24 11 -4 -3 -11 2 -14 11 -3
8 -10 12 -16 9 -5 -3 -10 -1 -10 6 0 7 -3 10 -6 6 -4 -3 -13 1 -21 9 -8 8 -23
12 -32 10 -9 -3 -25 2 -36 10 -20 15 -20 16 8 35 15 12 25 25 21 30 -3 5 2 12
10 15 9 3 13 10 10 15 -3 5 0 9 6 9 6 0 9 4 6 9 -4 5 -1 11 4 13 6 2 13 12 15
23 2 11 4 21 5 23 2 1 4 7 5 12 1 6 4 13 5 18 1 4 3 12 5 17 1 6 3 12 5 15 3
6 10 45 15 85 2 17 4 30 5 30 1 0 3 9 5 19 2 10 10 23 17 27 7 5 9 9 3 9 -5 0
-2 5 8 11 9 6 15 14 12 19 -3 5 4 14 15 20 11 6 20 17 20 25 0 8 9 19 20 25
11 6 18 15 15 20 -3 5 4 14 15 20 11 6 18 15 15 20 -3 5 5 16 17 25 13 8 23
19 23 23 0 13 68 76 86 79 28 4 35 -23 44 -167 5 -85 10 -130 15 -140 1 -3 2
-8 1 -12 0 -5 4 -8 10 -8 5 0 7 -5 4 -10 -3 -6 1 -13 9 -16 9 -3 13 -10 10
-15 -3 -5 0 -9 6 -9 7 0 10 -7 6 -15 -3 -8 -1 -15 5 -15 6 0 8 -4 4 -9 -3 -5
2 -17 11 -25 8 -9 12 -16 7 -16 -4 0 1 -7 12 -16 11 -8 20 -18 20 -22 0 -17
156 -183 166 -176 4 2 13 -5 19 -16 6 -11 15 -18 19 -15 5 3 12 -2 15 -11 3
-8 10 -13 15 -10 5 3 12 -1 15 -10 3 -8 10 -13 15 -10 5 3 12 -1 15 -10 3 -8
10 -12 16 -9 5 3 10 1 10 -4 0 -6 7 -11 15 -11 8 0 15 -5 15 -11 0 -5 5 -7 10
-4 6 3 10 1 10 -5 0 -6 5 -8 10 -5 6 3 10 1 10 -6 0 -7 3 -9 7 -6 3 4 12 2 20
-4 7 -6 13 -9 13 -5 0 3 11 1 25 -4 16 -6 25 -6 25 0 0 6 5 9 12 8 7 -2 13 7
14 20 1 12 -3 22 -9 22 -6 0 -7 3 -4 7 9 9 -22 43 -40 43 -7 0 -13 5 -13 11 0
5 -4 7 -10 4 -5 -3 -10 -1 -10 5 0 6 -4 8 -10 5 -5 -3 -10 -1 -10 5 0 6 -4 8
-10 5 -5 -3 -10 -1 -10 5 0 6 -5 8 -10 5 -6 -3 -13 1 -16 9 -3 9 -10 14 -14
11 -4 -3 -11 2 -14 11 -3 8 -10 13 -15 9 -6 -3 -18 6 -27 20 -9 14 -21 25 -27
25 -12 0 -131 122 -129 132 1 4 -7 12 -18 18 -11 6 -18 15 -15 21 4 5 -1 12
-9 15 -9 3 -13 10 -10 15 3 5 -2 12 -10 15 -9 3 -13 10 -10 15 3 5 0 9 -6 9
-6 0 -8 5 -5 10 3 6 1 10 -5 10 -6 0 -9 4 -5 9 3 5 1 12 -5 16 -6 4 -8 10 -5
15 3 5 1 11 -5 15 -6 4 -8 10 -5 15 3 5 1 11 -5 15 -6 4 -8 11 -5 16 4 5 3 15
-2 22 -11 18 -15 51 -16 147 0 74 6 143 13 160 1 3 2 9 1 14 -1 4 4 14 10 22
6 8 8 14 4 14 -4 0 -2 7 5 15 7 8 9 15 5 15 -4 0 -2 7 5 15 7 8 9 15 5 15 -4
0 -2 7 5 15 7 8 9 15 5 15 -4 0 -2 7 5 15 7 8 9 15 5 15 -4 0 -2 7 5 15 6 8 9
18 7 23 -3 4 -2 14 3 22 11 18 -17 60 -41 60 -10 0 -21 -5 -24 -10 -4 -6 -10
-8 -15 -5 -8 5 -38 -27 -70 -74 -15 -23 -47 -62 -75 -92 -8 -9 -15 -21 -15
-27 0 -6 -9 -16 -20 -22 -11 -6 -20 -17 -20 -25 0 -8 -9 -19 -20 -25 -11 -6
-18 -15 -15 -19 2 -5 -7 -16 -20 -25 -14 -9 -23 -21 -20 -26 3 -5 -4 -14 -15
-20 -11 -6 -18 -15 -15 -20 3 -5 -4 -14 -15 -20 -11 -6 -20 -17 -20 -24 0 -8
-7 -16 -15 -20 -8 -3 -15 -12 -15 -21 0 -8 -5 -15 -10 -15 -6 0 -13 -7 -17
-16 -8 -22 -131 -143 -137 -136 -4 3 -6 1 -6 -5 0 -9 -13 -13 -52 -14 -10 0
-20 -4 -22 -8 -3 -5 -43 -6 -88 -4 -46 2 -91 4 -100 4 -10 0 -20 5 -23 10 -4
5 -11 7 -16 4 -5 -4 -9 -1 -9 5 0 6 -4 8 -10 5 -5 -3 -10 -1 -10 5 0 6 -4 8
-10 5 -5 -3 -10 -1 -10 5 0 6 -4 8 -10 5 -5 -3 -10 -1 -10 5 0 6 -4 8 -10 5
-5 -3 -10 -1 -10 4 0 6 -3 10 -8 9 -9 -4 -104 94 -97 100 2 3 -7 13 -20 24
-14 11 -23 23 -20 28 3 5 1 11 -4 14 -10 7 -11 21 -12 136 -1 102 5 140 23
151 7 5 9 9 3 9 -5 0 -2 5 8 11 9 6 15 14 12 19 -3 4 2 11 11 14 8 3 13 10 9
15 -3 6 4 15 15 21 11 6 18 15 15 20 -3 5 6 17 20 26 13 9 22 20 20 25 -3 4 4
13 15 19 11 6 18 15 15 20 -3 5 4 14 15 20 11 6 18 15 15 20 -3 5 4 14 15 20
11 6 20 17 20 24 0 8 7 16 15 20 8 3 15 12 15 20 0 7 7 16 15 20 8 3 15 12 15
20 0 9 9 20 20 26 11 6 18 15 15 20 -3 5 4 14 15 20 11 6 20 17 20 25 0 8 9
19 20 25 11 6 18 15 15 19 -2 5 7 16 20 25 14 9 23 21 20 26 -3 5 4 14 15 20
11 6 18 15 15 20 -3 5 4 14 15 20 11 6 20 17 20 25 0 8 9 19 20 25 11 6 18 15
15 20 -3 5 4 14 15 20 11 6 20 17 20 25 0 8 9 19 20 25 11 6 20 17 20 25 0 8
9 19 20 25 11 6 19 14 17 19 -1 4 12 22 28 39 17 17 43 47 58 66 16 20 33 34
38 31 4 -3 16 6 25 20 9 14 23 25 30 25 8 0 14 5 14 11 0 5 5 7 10 4 6 -3 10
-1 10 5 0 6 5 8 10 5 6 -3 10 -1 10 5 0 6 4 9 9 5 5 -3 12 -1 16 4 3 6 12 8
20 4 8 -3 15 0 15 5 0 6 8 11 18 11 25 0 72 8 77 13 4 3 114 3 123 -1z m-1938
-1206 c19 -2 51 -7 70 -10 53 -8 128 -17 260 -30 30 -3 71 -8 90 -11 19 -2 42
-4 50 -5 8 0 22 -3 30 -7 14 -5 27 -8 88 -16 15 -2 28 -4 30 -5 1 0 3 0 5 1 6
5 45 -37 41 -44 -3 -4 0 -8 6 -8 6 0 8 -4 5 -10 -3 -5 -1 -10 5 -10 6 0 9 -4
5 -9 -3 -5 -1 -12 5 -16 6 -4 8 -11 5 -16 -4 -5 -1 -9 5 -9 6 0 8 -4 5 -10 -3
-5 -1 -10 4 -10 6 0 11 -7 11 -15 0 -8 5 -15 11 -15 5 0 8 -4 4 -9 -3 -6 4
-15 15 -21 11 -6 20 -16 20 -23 0 -17 74 -89 83 -81 4 4 9 -1 13 -10 3 -9 12
-16 20 -16 8 0 14 -4 14 -10 0 -5 7 -10 15 -10 8 0 15 -5 15 -12 0 -6 3 -9 6
-5 4 3 13 -1 21 -9 8 -8 19 -12 24 -9 5 4 9 1 9 -4 0 -6 3 -10 8 -10 4 1 10 0
15 -1 4 -1 12 -4 17 -5 6 -1 11 -3 13 -5 4 -3 74 -9 176 -14 57 -3 106 -7 109
-11 10 -9 9 -45 0 -45 -5 0 -6 -4 -3 -10 3 -5 1 -10 -5 -10 -6 0 -9 -4 -6 -9
3 -5 -1 -12 -10 -15 -8 -3 -12 -10 -9 -16 3 -5 1 -10 -6 -10 -7 0 -9 -3 -6 -7
9 -9 -43 -63 -60 -63 -7 0 -13 -4 -13 -10 0 -5 -7 -10 -15 -10 -8 0 -15 -5
-15 -11 0 -5 -4 -8 -9 -4 -5 3 -12 1 -16 -5 -4 -6 -10 -8 -15 -5 -5 3 -11 1
-14 -4 -8 -12 -227 -4 -376 14 -19 2 -57 6 -85 9 -121 14 -272 33 -320 41 -43
7 -93 14 -145 20 -56 7 -106 14 -145 20 -16 2 -48 6 -70 9 -22 3 -56 8 -75 11
-19 3 -46 7 -60 9 -14 2 -26 4 -27 5 -2 0 -5 0 -6 -1 -2 -2 -11 3 -20 10 -9 8
-21 11 -27 7 -5 -3 -10 -1 -10 5 0 7 -7 10 -15 6 -8 -3 -15 -1 -15 5 0 6 -4 7
-10 4 -5 -3 -10 -1 -10 5 0 6 -4 8 -10 5 -5 -3 -10 -1 -10 5 0 6 -11 16 -25
22 -14 6 -25 17 -25 25 0 7 -7 16 -15 19 -8 4 -15 12 -15 20 0 8 -5 14 -11 14
-5 0 -7 5 -4 10 3 6 2 10 -4 10 -6 0 -8 7 -5 15 4 8 1 15 -4 15 -6 0 -11 8
-11 18 -3 119 -2 172 4 181 3 6 3 16 0 21 -3 6 -1 10 5 10 6 0 8 5 4 12 -4 6
1 17 11 25 11 7 15 13 11 13 -4 0 10 17 31 37 21 20 42 36 46 35 4 -1 10 5 13
13 3 8 10 12 15 9 5 -3 9 0 9 5 0 6 7 11 15 11 8 0 15 5 15 11 0 5 4 8 9 4 5
-3 12 -1 16 5 4 6 10 8 15 5 5 -3 11 -1 14 3 5 9 120 7 196 -3z m220 -780 c54
-12 110 -20 215 -30 126 -12 151 -16 250 -31 124 -20 212 -28 380 -38 76 -5
144 -12 210 -22 17 -2 37 -5 45 -5 8 -1 21 -6 28 -12 6 -5 12 -6 12 -2 0 4 7
2 15 -5 8 -6 19 -9 25 -5 5 3 10 1 10 -5 0 -6 5 -8 10 -5 6 3 10 1 10 -5 0 -6
4 -9 9 -6 5 3 12 -1 15 -10 4 -9 9 -14 13 -10 9 8 53 -34 53 -51 0 -8 7 -16
15 -19 8 -4 12 -10 9 -15 -3 -5 0 -9 5 -9 6 0 10 -3 9 -7 -1 -5 4 -19 12 -33
27 -47 34 -130 15 -167 -8 -15 -12 -30 -9 -35 3 -4 0 -8 -6 -8 -6 0 -9 -4 -5
-9 3 -5 -2 -17 -11 -25 -8 -9 -13 -16 -10 -16 3 0 -18 -23 -47 -52 -28 -28
-56 -51 -60 -50 -4 1 -10 -5 -13 -13 -3 -8 -10 -12 -15 -9 -5 3 -9 0 -9 -6 0
-6 -4 -8 -10 -5 -5 3 -10 3 -10 -2 0 -4 -51 -7 -112 -6 -129 3 -193 8 -323 28
-70 11 -99 14 -160 20 -123 11 -200 21 -200 25 0 1 -11 4 -25 6 -63 9 -99 13
-150 19 -30 3 -71 8 -90 10 -19 2 -57 6 -85 9 -46 5 -70 9 -117 18 -10 2 -20
7 -24 10 -3 4 -12 4 -20 1 -8 -3 -14 0 -14 7 0 6 -4 9 -9 6 -5 -3 -14 1 -21 9
-7 8 -16 12 -21 9 -5 -3 -9 0 -9 5 0 6 -4 10 -8 9 -11 -4 -72 57 -72 72 0 6
-7 13 -15 16 -8 4 -12 10 -9 15 3 5 0 9 -6 9 -6 0 -9 4 -5 9 3 5 1 12 -5 16
-6 4 -8 11 -4 16 3 5 1 16 -5 23 -7 8 -9 38 -6 77 2 35 5 72 5 81 1 10 6 20
11 23 5 4 7 11 4 16 -4 5 -1 9 5 9 6 0 8 5 5 10 -3 6 -1 10 5 10 6 0 8 5 5 10
-3 6 -1 10 6 10 7 0 9 3 6 7 -9 9 43 63 60 63 7 0 13 5 13 11 0 5 4 8 9 4 5
-3 17 2 25 11 9 8 16 12 16 8 0 -3 7 -1 15 6 8 6 19 9 24 5 6 -3 19 -1 28 5
17 10 55 8 113 -5z m1310 -618 c0 -2 -12 -14 -27 -28 l-28 -24 24 28 c23 25
31 32 31 24z"/>
</g>
</svg>
