<?xml version="1.0" standalone="no"?>
<!DOCTYPE svg PUBLIC "-//W3C//DTD SVG 20010904//EN"
 "http://www.w3.org/TR/2001/REC-SVG-20010904/DTD/svg10.dtd">
<svg version="1.0" xmlns="http://www.w3.org/2000/svg"
 width="1076.000000pt" height="1078.000000pt" viewBox="0 0 1076.000000 1078.000000"
 preserveAspectRatio="xMidYMid meet">

<g transform="translate(0.000000,1078.000000) scale(0.100000,-0.100000)"
fill="#000000" stroke="none">
<path d="M4715 10054 c-40 -21 -61 -41 -88 -83 -22 -36 -22 -40 -27 -566 l-5
-530 -65 -32 c-36 -18 -70 -33 -76 -33 -15 0 -141 -95 -174 -130 -14 -15 -42
-49 -62 -76 -21 -27 -42 -54 -48 -61 -22 -26 -108 -201 -115 -234 -4 -19 -11
-39 -16 -45 -5 -6 -18 -44 -28 -85 -35 -129 -57 -203 -68 -224 -6 -11 -14 -40
-18 -65 -4 -25 -13 -56 -20 -70 -7 -14 -18 -61 -24 -105 -7 -44 -14 -91 -16
-105 -7 -49 16 -183 39 -226 46 -86 184 -175 292 -188 32 -4 93 -16 134 -26
41 -10 101 -21 134 -25 32 -4 75 -13 96 -20 20 -7 68 -16 106 -20 38 -4 95
-16 128 -26 32 -11 75 -19 95 -19 20 0 63 -7 94 -15 77 -20 106 -19 182 6 72
23 116 65 163 154 22 42 26 63 26 135 1 74 -3 91 -26 135 -55 101 -119 148
-228 165 -41 7 -86 17 -99 22 -13 5 -58 13 -100 19 -69 9 -198 36 -292 60 -23
6 -40 18 -47 34 -10 21 -8 27 11 40 12 8 40 15 63 15 85 0 255 64 348 132 139
101 195 240 209 513 2 44 5 51 30 59 45 16 52 -1 49 -121 -3 -214 -92 -408
-237 -519 -25 -18 -48 -34 -52 -34 -3 0 -14 -7 -23 -15 -9 -9 -37 -21 -61 -28
-24 -7 -43 -17 -43 -22 4 -25 56 -47 141 -60 50 -7 99 -18 109 -23 11 -5 41
-13 69 -17 63 -9 121 -43 176 -102 49 -53 67 -56 151 -25 32 12 77 22 102 22
66 0 162 -40 223 -94 l53 -47 10 26 c6 14 10 35 10 46 0 34 60 128 106 165 46
38 156 84 200 84 58 0 173 -44 215 -82 23 -21 52 -38 65 -38 l24 0 -4 168 c-7
259 -24 349 -110 581 -10 24 -26 55 -36 69 -11 14 -20 30 -20 37 0 7 -16 30
-35 51 -19 22 -35 43 -35 47 0 15 -146 153 -201 189 -30 20 -62 44 -70 54 -12
14 -15 109 -19 553 l-5 536 -23 38 c-13 20 -40 50 -60 65 l-35 27 -556 3
c-490 2 -560 0 -586 -14z"/>
<path d="M6099 7652 c-59 -34 -92 -74 -112 -136 -15 -42 -17 -110 -17 -510 -1
-531 -1 -531 78 -614 39 -42 56 -52 104 -62 109 -24 202 12 264 102 l29 41 5
386 c3 212 2 449 -1 527 -5 138 -6 142 -37 190 -66 98 -215 135 -313 76z"/>
<path d="M5481 7468 l-43 -31 7 -63 c5 -51 2 -76 -19 -141 -13 -44 -34 -96
-46 -116 -21 -35 -21 -44 -20 -441 0 -223 4 -414 7 -423 23 -59 86 -122 142
-141 43 -15 134 -14 183 1 48 15 107 71 136 129 22 45 22 46 22 554 l0 509
-24 50 c-25 53 -58 88 -117 123 -29 17 -52 22 -111 22 -67 0 -78 -3 -117 -32z"/>
<path d="M4185 7088 c-43 -34 -47 -85 -43 -628 3 -551 0 -517 65 -598 41 -51
61 -62 133 -76 107 -22 201 17 267 109 l28 40 3 529 c2 454 1 532 -12 551 -12
19 -30 25 -103 35 -48 6 -100 16 -114 21 -14 6 -65 16 -113 23 -81 12 -89 12
-111 -6z"/>
<path d="M4747 6993 c-4 -3 -7 -219 -7 -479 0 -470 0 -473 23 -517 30 -59 64
-97 112 -127 33 -20 53 -25 115 -25 64 0 82 4 121 27 56 33 95 77 120 136 18
40 19 77 19 497 l0 453 -21 5 c-12 3 -47 1 -78 -5 -66 -12 -158 -4 -267 22
-82 21 -126 25 -137 13z"/>
<path d="M6181 5699 c-46 -14 -85 -45 -118 -92 -26 -37 -28 -48 -28 -132 0
-84 2 -95 28 -132 16 -23 42 -52 59 -65 17 -12 105 -81 194 -153 90 -71 216
-172 281 -222 65 -51 168 -132 230 -180 61 -49 166 -131 234 -183 183 -142
198 -157 192 -183 -11 -44 -20 -47 -86 -21 -34 14 -74 31 -89 39 -14 8 -32 15
-39 15 -6 0 -37 12 -68 26 -71 34 -99 46 -191 84 -41 16 -92 39 -112 50 -20
11 -43 20 -49 20 -7 0 -31 9 -53 19 -23 10 -70 31 -106 46 -36 14 -82 35 -102
46 -20 10 -43 19 -50 19 -8 0 -32 9 -53 20 -22 12 -72 34 -112 50 -39 16 -92
38 -117 49 -170 78 -342 141 -386 141 -40 0 -114 -26 -148 -52 -13 -9 -38 -39
-55 -65 -29 -44 -32 -54 -32 -129 1 -74 3 -84 33 -130 27 -39 49 -57 113 -91
45 -24 86 -43 92 -43 7 0 34 -11 62 -24 27 -13 79 -36 115 -51 36 -15 83 -36
106 -46 22 -10 44 -19 49 -19 4 0 26 -9 49 -20 23 -10 75 -33 116 -50 41 -17
116 -49 165 -70 50 -22 102 -42 117 -46 15 -3 32 -12 39 -20 6 -8 18 -14 26
-14 15 0 140 -51 178 -72 11 -6 87 -15 170 -20 82 -4 184 -15 225 -24 41 -8
119 -18 172 -21 l97 -6 12 29 c42 102 65 136 305 438 44 55 91 120 104 143
l23 42 -25 20 c-41 33 -111 89 -138 111 -32 26 -186 147 -230 180 -18 14 -96
75 -172 135 -76 61 -179 143 -230 182 -51 40 -154 121 -230 180 -394 311 -370
295 -461 299 -40 2 -87 -1 -106 -7z"/>
<path d="M3765 5691 c-34 -12 -99 -41 -111 -49 -40 -26 -74 -50 -109 -78 -22
-17 -53 -39 -70 -48 -16 -9 -51 -32 -77 -51 -44 -32 -268 -186 -363 -248 -22
-15 -44 -30 -50 -34 -5 -5 -44 -31 -85 -59 -41 -28 -106 -73 -145 -99 -38 -27
-108 -75 -155 -107 -47 -32 -129 -89 -183 -126 -54 -37 -111 -74 -128 -83 -17
-8 -34 -20 -37 -26 -4 -5 -45 -36 -92 -67 -123 -81 -191 -129 -210 -146 -9 -8
-36 -33 -60 -54 -211 -189 -320 -410 -339 -688 -5 -74 -13 -123 -22 -134 -11
-14 -103 -80 -151 -109 -17 -11 -84 -56 -292 -201 -70 -49 -138 -95 -150 -103
-153 -102 -192 -131 -223 -164 -35 -39 -35 -40 -31 -116 4 -75 20 -113 71
-171 7 -8 28 -40 47 -70 19 -30 37 -57 40 -60 3 -3 30 -41 59 -85 30 -44 62
-91 73 -105 10 -14 38 -54 61 -90 24 -36 68 -102 100 -147 31 -45 57 -86 57
-90 0 -4 22 -33 49 -63 l49 -55 83 0 c84 0 84 0 149 46 123 87 201 139 209
139 5 0 14 7 21 15 10 12 88 67 171 120 8 5 48 33 88 60 40 28 87 59 104 69
18 11 51 34 74 53 55 44 96 52 131 26 15 -11 44 -25 64 -32 21 -7 40 -16 43
-21 3 -4 29 -14 57 -20 29 -7 65 -19 80 -26 14 -8 86 -21 159 -29 115 -14 201
-14 648 -5 284 5 599 12 701 13 170 4 189 6 230 27 101 52 150 129 150 235 0
109 -48 182 -158 237 -55 28 -56 28 -311 35 -141 3 -266 10 -279 14 -21 8 -22
11 -10 33 13 25 81 79 121 96 12 6 42 26 67 44 50 38 86 64 174 122 32 21 86
58 120 81 33 24 90 63 126 87 36 25 140 96 231 158 91 62 212 145 268 183 56
39 112 77 125 85 21 14 82 56 130 90 12 8 37 24 55 35 58 35 101 72 129 112
24 34 27 47 27 118 0 76 -2 82 -34 123 -47 58 -111 92 -173 92 -57 0 -83 -12
-196 -89 -45 -31 -100 -67 -121 -81 -54 -35 -222 -150 -306 -209 -38 -28 -86
-59 -105 -71 -19 -11 -89 -59 -155 -105 -158 -112 -197 -132 -232 -119 -15 5
-35 24 -46 41 -18 31 -18 33 0 64 18 30 130 119 178 141 14 6 25 15 25 19 0 5
17 18 38 29 20 11 64 40 97 65 33 25 71 50 85 57 14 6 33 18 42 26 29 24 238
167 433 296 22 14 54 36 71 48 29 22 137 96 208 144 17 12 47 41 66 65 33 42
35 48 35 124 0 73 -2 83 -30 120 -41 55 -52 62 -115 81 -47 15 -64 15 -115 5
-33 -7 -69 -21 -80 -30 -24 -21 -213 -151 -345 -237 -52 -34 -102 -68 -110
-76 -14 -12 -32 -24 -120 -81 -14 -9 -68 -46 -120 -82 -52 -36 -124 -86 -160
-110 -36 -25 -121 -83 -190 -130 -92 -62 -133 -85 -156 -85 -94 0 -107 114
-18 163 35 19 229 154 276 191 14 11 49 35 78 51 28 17 68 43 88 59 20 15 66
48 102 72 36 24 97 65 135 92 39 26 95 64 125 85 30 20 78 52 105 72 28 20 72
50 98 67 27 17 51 38 55 47 3 9 14 28 24 43 29 42 25 139 -9 197 -32 56 -55
75 -112 98 -64 25 -154 8 -227 -44 -30 -21 -63 -43 -74 -49 -11 -6 -28 -18
-37 -26 -10 -9 -56 -41 -103 -72 -47 -31 -90 -60 -95 -64 -14 -12 -121 -83
-161 -107 -18 -12 -41 -28 -51 -37 -10 -9 -70 -50 -133 -92 -63 -42 -123 -82
-134 -89 -10 -6 -47 -33 -83 -59 -35 -27 -66 -48 -68 -48 -2 0 -40 -26 -85
-57 -105 -74 -128 -86 -163 -85 -41 1 -67 28 -67 69 0 46 12 66 57 94 62 40
66 43 129 89 34 25 94 68 134 95 71 49 103 70 255 170 43 28 98 66 124 86 26
20 61 43 77 52 44 23 112 96 125 135 6 19 9 62 7 97 -3 49 -10 72 -33 105 -44
63 -155 112 -210 91z"/>
<path d="M8147 4809 c-99 -26 -148 -70 -299 -264 -26 -33 -60 -77 -75 -98 -15
-21 -37 -49 -48 -62 -11 -14 -40 -52 -65 -85 -25 -34 -74 -98 -110 -143 -116
-148 -114 -144 -118 -226 -4 -73 10 -151 28 -151 5 0 12 -10 16 -22 16 -51
111 -115 193 -129 69 -13 173 1 201 26 35 32 56 54 73 76 10 13 40 53 67 89
28 36 57 74 65 85 14 19 99 127 152 193 29 35 62 42 83 17 11 -13 7 -34 -24
-123 -31 -93 -36 -121 -36 -199 0 -144 46 -248 156 -355 65 -62 118 -101 168
-122 46 -19 80 -64 64 -83 -19 -24 -72 -9 -151 43 -39 27 -74 50 -77 54 -3 3
-23 20 -45 39 -57 49 -135 150 -135 174 0 11 -9 30 -20 42 -17 18 -22 40 -27
139 -3 64 -10 119 -15 122 -16 10 -43 -7 -71 -44 -15 -20 -56 -73 -91 -117
-60 -76 -63 -83 -68 -147 -6 -66 -45 -157 -83 -188 -19 -16 -10 -30 19 -30 13
0 34 -8 47 -19 13 -10 33 -21 44 -25 32 -10 82 -61 118 -118 31 -51 32 -58 32
-154 0 -95 -2 -103 -29 -145 -38 -57 -98 -114 -133 -127 -76 -27 -115 -34
-165 -29 -29 3 -120 13 -203 21 -82 8 -172 19 -200 25 -61 14 -242 29 -272 23
-31 -6 -29 -20 5 -33 15 -6 34 -15 42 -19 24 -13 278 -144 308 -158 15 -7 34
-17 42 -23 8 -5 26 -14 40 -20 14 -6 43 -19 65 -29 87 -41 200 -72 330 -91
113 -16 149 -18 209 -9 131 19 227 38 239 48 7 5 29 15 51 22 21 7 54 23 73
36 19 12 50 28 69 34 32 11 41 8 137 -39 56 -29 109 -56 117 -61 8 -4 42 -22
75 -38 33 -16 176 -89 317 -160 142 -72 275 -136 297 -142 59 -16 138 4 176
44 25 27 117 193 188 341 11 22 32 65 48 95 144 275 243 486 247 529 6 68 -23
130 -79 168 -38 25 -293 158 -414 216 -22 10 -47 22 -55 27 -8 5 -71 37 -140
71 -69 34 -132 68 -140 74 -8 7 -27 15 -42 19 -41 9 -58 52 -58 141 0 42 -6
90 -13 108 -8 18 -17 50 -21 72 -15 80 -99 200 -231 330 -96 94 -150 140 -325
275 -71 55 -156 123 -160 129 -13 17 -105 63 -162 81 -76 24 -112 24 -201 -1z"/>
<path d="M6670 3909 c-50 -22 -105 -70 -125 -109 -37 -71 -26 -195 23 -256 58
-73 109 -89 407 -125 44 -6 130 -17 190 -26 61 -8 148 -19 195 -24 47 -4 128
-13 180 -20 158 -19 236 13 296 120 13 25 22 50 20 57 -4 10 -34 13 -110 12
-97 0 -109 2 -168 30 -69 33 -133 87 -172 145 -14 21 -26 40 -26 43 0 3 -9 25
-20 49 -13 30 -28 46 -43 49 -107 21 -206 36 -282 41 -49 4 -125 13 -169 21
-104 19 -142 17 -196 -7z"/>
<path d="M6863 3317 c-87 -46 -122 -124 -110 -244 5 -45 13 -64 45 -101 58
-69 118 -90 311 -107 86 -7 168 -18 182 -23 14 -6 72 -13 130 -17 57 -4 133
-13 168 -21 79 -18 257 -28 294 -17 43 13 112 74 137 121 36 67 38 128 5 193
-58 115 -131 144 -398 159 -97 6 -211 17 -254 25 -43 8 -130 19 -193 25 -63 5
-131 14 -150 20 -56 16 -121 11 -167 -13z"/>
</g>
</svg>
