<?xml version="1.0"?>
<svg xmlns="http://www.w3.org/2000/svg" viewBox="0 0 50 50" enable-background="new 0 0 50 50">
    <path style="text-indent:0;text-align:start;line-height:normal;text-transform:none;block-progression:tb;-inkscape-font-specification:Bitstream Vera Sans" d="M 0.8125 0 A 1.0001 1.0001 0 0 0 0 1 L 0 49 A 1.0001 1.0001 0 0 0 1 50 L 33 50 A 1.0001 1.0001 0 0 0 34 49 L 34 45 L 34 43.5 A 1.0001 1.0001 0 0 0 34 43.40625 L 34 37 L 32 35 L 32 43.34375 A 1.0001 1.0001 0 0 0 32 43.5 L 32 45 L 32 48 L 2 48 L 2 29 L 6 29 L 6 27 L 2 27 L 2 2 L 32 2 L 32 8 L 32 8.5 A 1.0001 1.0001 0 0 0 32 8.59375 L 32 20 L 33 21 L 34 20 L 34 8.65625 A 1.0001 1.0001 0 0 0 34 8.5 L 34 8 L 34 1 A 1.0001 1.0001 0 0 0 33 0 L 1 0 A 1.0001 1.0001 0 0 0 0.90625 0 A 1.0001 1.0001 0 0 0 0.8125 0 z M 11.8125 10 A 1.0001 1.0001 0 0 0 11.28125 11.71875 L 26.59375 27 L 22 27 L 22 29 L 27 29 L 27 27.40625 L 36.25 36.65625 C 36.144935 37.102721 36 37.536356 36 38 C 36 41.845455 39.154545 45 43 45 C 46.845455 45 50 41.845455 50 38 C 50 34.154545 46.845455 31 43 31 C 42.302385 31 41.686532 31.23943 41.0625 31.4375 L 38.125 28.5 L 41.0625 25.5625 C 41.686532 25.76057 42.302385 26 43 26 C 46.845455 26 50 22.845455 50 19 C 50 15.154545 46.845455 12 43 12 C 39.154545 12 36 15.154545 36 19 C 36 19.519086 36.08466 19.978272 36.15625 20.4375 L 33.125 23.5 L 22.40625 12.78125 C 20.614742 10.989742 18.160227 10 15.6875 10 L 12 10 A 1.0001 1.0001 0 0 0 11.90625 10 A 1.0001 1.0001 0 0 0 11.8125 10 z M 14.4375 12 L 15.6875 12 C 17.614773 12 19.591508 12.810258 21 14.21875 L 35.8125 29 A 1.0054782 1.0054782 0 0 0 36.15625 29.34375 L 40 33.21875 A 1.0001 1.0001 0 0 0 41.09375 33.40625 C 41.688101 33.151528 42.366667 33 43 33 C 45.754545 33 48 35.245455 48 38 C 48 40.754545 45.754545 43 43 43 C 40.245455 43 38 40.754545 38 38 C 38 37.511111 38.07851 37.00684 38.21875 36.65625 A 1.0001 1.0001 0 0 0 38 35.59375 L 14.4375 12 z M 43 14 C 45.754545 14 48 16.245455 48 19 C 48 21.754545 45.754545 24 43 24 C 42.366667 24 41.688101 23.848472 41.09375 23.59375 A 1.0001 1.0001 0 0 0 40 23.78125 L 36.6875 27.0625 L 34.5 24.875 L 37.90625 21.5 A 1.0001 1.0001 0 0 0 38.1875 20.625 C 38.0875 20.025 38 19.488889 38 19 C 38 16.245455 40.245455 14 43 14 z M 43 16 C 41.354545 16 40 17.354545 40 19 C 40 20.645455 41.354545 22 43 22 C 44.645455 22 46 20.645455 46 19 C 46 17.354545 44.645455 16 43 16 z M 43 18 C 43.554545 18 44 18.445455 44 19 C 44 19.554545 43.554545 20 43 20 C 42.445455 20 42 19.554545 42 19 C 42 18.445455 42.445455 18 43 18 z M 8 27 L 8 29 L 13 29 L 13 27 L 8 27 z M 15 27 L 15 29 L 20 29 L 20 27 L 15 27 z M 33 27 C 32.447715 27 32 27.447715 32 28 C 32 28.552285 32.447715 29 33 29 C 33.552285 29 34 28.552285 34 28 C 34 27.447715 33.552285 27 33 27 z M 43 35 C 41.354545 35 40 36.354545 40 38 C 40 39.645455 41.354545 41 43 41 C 44.645455 41 46 39.645455 46 38 C 46 36.354545 44.645455 35 43 35 z M 43 37 C 43.554545 37 44 37.445455 44 38 C 44 38.554545 43.554545 39 43 39 C 42.445455 39 42 38.554545 42 38 C 42 37.445455 42.445455 37 43 37 z"/>
</svg>
