<?xml version="1.0" encoding="UTF-8" standalone="no"?>
<!DOCTYPE svg PUBLIC "-//W3C//DTD SVG 1.1//EN" "http://www.w3.org/Graphics/SVG/1.1/DTD/svg11.dtd">
<svg version="1.1" xmlns="http://www.w3.org/2000/svg" xmlns:xlink="http://www.w3.org/1999/xlink" preserveAspectRatio="xMidYMid meet" viewBox="0 0 640 640" width="640" height="640"><defs><path d="M548.88 12.81C548.88 41.83 548.88 186.89 548.88 448L522.56 448L522.56 25.61L101.48 25.61C101.48 325.13 101.48 491.52 101.48 524.8C101.48 573.6 141.98 613.54 191.95 614.4C192.5 614.41 193.04 614.4 193.59 614.4C202.68 614.4 212.07 609.03 219.91 597.6C227.75 586.17 233.07 569.19 233.07 550.4C233.07 531.61 227.75 514.64 219.91 503.2C212.07 491.77 202.68 486.4 193.59 486.4C189.59 486.4 185.81 484.64 183.31 481.6C183.02 481.22 182.74 480.82 182.49 480.4C182.33 480.01 182.2 479.61 182.08 479.2C181.78 478.82 181.51 478.42 181.26 478C180.67 476.47 180.39 474.84 180.43 473.2C180.59 471.37 181.15 469.6 182.08 468C182.6 466.84 183.29 465.76 184.14 464.8C184.97 463.87 185.94 463.06 187.01 462.4C187.42 462.25 187.83 462.12 188.25 462C189.41 461.43 190.66 461.02 191.95 460.8C192.5 460.77 193.05 460.77 193.59 460.8C230.44 460.8 525.19 460.8 562.03 460.8C581.89 460.8 598.9 472.8 610.15 489.2C621.39 505.61 627.83 526.95 627.83 550.4C627.83 573.85 621.39 595.19 610.15 611.6C598.9 628 581.89 640 562.03 640C525.19 640 230.44 640 193.59 640C193.17 640 192.78 640 192.36 640C127.86 639.33 75.17 587.69 75.17 524.8C75.17 473.6 75.17 64.01 75.17 12.81C75.17 5.74 81.06 0.01 88.32 0.01C133.06 0.01 490.98 0.01 535.72 0.01C536.13 0 536.54 0 536.95 0.01C537.36 0 537.77 0 538.18 0.01C544.47 1.18 548.99 6.59 548.88 12.81ZM238.83 486.4C239.65 487.48 240.93 488.08 241.7 489.2C252.95 505.61 259.39 526.95 259.39 550.4C259.39 573.85 252.95 595.19 241.7 611.6C240.93 612.72 239.65 613.32 238.83 614.4C271.15 614.4 529.71 614.4 562.03 614.4C571.13 614.4 580.52 609.03 588.35 597.6C596.19 586.17 601.51 569.19 601.51 550.4C601.51 531.61 596.19 514.64 588.35 503.2C580.52 491.77 571.13 486.4 562.03 486.4C497.39 486.4 271.15 486.4 238.83 486.4Z" id="a1btJSEovN"></path></defs><g><g><g><use xlink:href="#a1btJSEovN" opacity="1" fill="#000000" fill-opacity="1"></use><g><use xlink:href="#a1btJSEovN" opacity="1" fill-opacity="0" stroke="#000000" stroke-width="1" stroke-opacity="0"></use></g></g></g></g></svg>