<?xml version="1.0"?>
<svg xmlns="http://www.w3.org/2000/svg" viewBox="0 0 50 50" enable-background="new 0 0 50 50">
    <path style="text-indent:0;text-align:start;line-height:normal;text-transform:none;block-progression:tb;-inkscape-font-specification:Bitstream Vera Sans" d="M 10.8125 0 A 1.0001 1.0001 0 0 0 10 1 L 10 35 L 12 35 L 12 2 L 44 2 L 44 41 C 44 44.812727 40.922224 47.932774 37.125 48 C 37.083352 48.000737 37.041818 48 37 48 C 36.309091 48 35.595521 47.580781 35 46.6875 C 34.404479 45.794219 34 44.468182 34 43 C 34 41.531818 34.404479 40.205781 35 39.3125 C 35.595521 38.419219 36.309091 38 37 38 A 1.0001 1.0001 0 0 0 37.78125 37.625 A 1.0001 1.0001 0 0 0 37.84375 37.53125 A 1.0001 1.0001 0 0 0 37.875 37.4375 A 1.0001 1.0001 0 0 0 37.9375 37.34375 A 1.0001 1.0001 0 0 0 38 36.96875 A 1.0001 1.0001 0 0 0 37.875 36.5625 A 1.0001 1.0001 0 0 0 37.71875 36.3125 A 1.0001 1.0001 0 0 0 37.5 36.125 A 1.0001 1.0001 0 0 0 37.40625 36.09375 A 1.0001 1.0001 0 0 0 37.125 36 A 1.0001 1.0001 0 0 0 37 36 L 9 36 C 7.4909091 36 6.1982291 36.937031 5.34375 38.21875 C 4.4892709 39.500469 4 41.168182 4 43 C 4 44.831818 4.4892709 46.499531 5.34375 47.78125 C 6.1982291 49.062969 7.4909091 50 9 50 L 37 50 C 37.031937 50 37.061888 50.000337 37.09375 50 C 41.995705 49.948102 46 45.913518 46 41 L 46 1 A 1.0001 1.0001 0 0 0 45 0 L 11 0 A 1.0001 1.0001 0 0 0 10.90625 0 A 1.0001 1.0001 0 0 0 10.8125 0 z M 9 38 L 33.5625 38 C 33.4998 38.08443 33.402391 38.130789 33.34375 38.21875 C 32.489271 39.500469 32 41.168182 32 43 C 32 44.831818 32.489271 46.499531 33.34375 47.78125 C 33.40239 47.86921 33.499796 47.915573 33.5625 48 L 9 48 C 8.3090909 48 7.5955209 47.580781 7 46.6875 C 6.4044791 45.794219 6 44.468182 6 43 C 6 41.531818 6.4044791 40.205781 7 39.3125 C 7.5955209 38.419219 8.3090909 38 9 38 z" overflow="visible" enable-background="accumulate" font-family="Bitstream Vera Sans"/>
</svg>
