<?xml version="1.0" standalone="no"?>
<!DOCTYPE svg PUBLIC "-//W3C//DTD SVG 20010904//EN"
 "http://www.w3.org/TR/2001/REC-SVG-20010904/DTD/svg10.dtd">
<svg version="1.0" xmlns="http://www.w3.org/2000/svg"
 width="512.000000pt" height="512.000000pt" viewBox="0 0 512.000000 512.000000"
 preserveAspectRatio="xMidYMid meet">

<g transform="translate(0.000000,512.000000) scale(0.100000,-0.100000)"
fill="#000000" stroke="none">
<path d="M2525 5104 c-25 -25 -90 -124 -118 -180 -146 -288 -133 -571 39 -854
51 -85 98 -140 119 -140 19 0 42 25 92 103 202 311 208 632 17 947 -51 85 -98
140 -119 140 -7 0 -21 -7 -30 -16z"/>
<path d="M1105 4560 c-21 -23 -16 -79 17 -225 84 -368 284 -637 585 -789 133
-66 275 -112 427 -136 119 -19 133 7 100 181 -49 259 -174 510 -331 660 -154
149 -396 268 -634 314 -108 20 -142 19 -164 -5z"/>
<path d="M3830 4560 c-237 -50 -463 -164 -613 -309 -157 -150 -282 -401 -331
-660 -33 -174 -19 -200 100 -181 420 67 733 278 898 608 70 139 124 317 142
465 11 101 -23 114 -196 77z"/>
<path d="M2502 3313 c-29 -268 -55 -500 -58 -515 -5 -27 -6 -26 -51 30 -135
169 -305 301 -463 361 -30 12 -57 21 -60 21 -2 0 23 -20 55 -44 215 -156 367
-434 421 -767 29 -182 21 -314 -71 -1143 -46 -423 -86 -770 -87 -771 -2 -1
-34 1 -73 6 -165 19 -320 8 -445 -33 -217 -69 -378 -204 -425 -356 -6 -21 -3
-20 43 12 156 113 378 149 657 107 131 -20 199 -35 600 -140 375 -99 656 -105
908 -21 185 62 342 180 402 303 15 32 26 60 23 62 -3 3 -23 -8 -45 -24 -191
-139 -457 -166 -813 -83 l-75 18 -92 829 c-113 1013 -116 1100 -52 1360 70
279 217 515 414 662 26 19 19 18 -45 -8 -150 -62 -312 -189 -425 -332 -33 -42
-62 -73 -66 -69 -3 4 -29 225 -58 492 -29 267 -56 495 -60 508 -4 14 -29 -185
-59 -465z"/>
<path d="M828 3595 c-90 -15 -227 -56 -265 -81 -13 -8 -23 -22 -23 -30 0 -36
125 -174 225 -251 169 -129 372 -187 577 -164 129 15 325 72 343 101 15 24 -9
63 -91 149 -142 150 -304 244 -474 277 -90 17 -176 17 -292 -1z"/>
<path d="M3995 3596 c-169 -35 -330 -130 -468 -276 -83 -87 -107 -126 -92
-150 18 -29 214 -86 343 -101 264 -29 511 70 713 289 114 123 114 141 3 184
-145 56 -374 81 -499 54z"/>
<path d="M1885 2820 c-337 -71 -597 -235 -759 -479 -95 -142 -189 -404 -203
-561 -5 -57 -3 -67 15 -84 20 -17 28 -18 104 -7 297 43 565 173 738 358 155
165 268 412 310 677 19 121 -12 136 -205 96z"/>
<path d="M3035 2816 c-13 -20 -14 -34 -5 -92 42 -265 155 -512 310 -677 173
-185 441 -315 738 -358 76 -11 84 -10 104 7 18 17 20 27 15 84 -14 157 -108
419 -203 561 -163 246 -424 410 -762 479 -136 27 -177 27 -197 -4z"/>
</g>
</svg>
